<?xml version="1.0" encoding="UTF-8" standalone="no"?>
<!-- Created with Inkscape (http://www.inkscape.org/) -->

<svg
   xmlns:dc="http://purl.org/dc/elements/1.1/"
   xmlns:cc="http://creativecommons.org/ns#"
   xmlns:rdf="http://www.w3.org/1999/02/22-rdf-syntax-ns#"
   xmlns:svg="http://www.w3.org/2000/svg"
   xmlns="http://www.w3.org/2000/svg"
   xmlns:sodipodi="http://sodipodi.sourceforge.net/DTD/sodipodi-0.dtd"
   xmlns:inkscape="http://www.inkscape.org/namespaces/inkscape"
   width="210mm"
   height="297mm"
   viewBox="0 0 744.09448819 1052.3622047"
   id="svg2"
   version="1.1"
   inkscape:version="0.91 r13725"
   sodipodi:docname="gravure-amy-rose-tell-hi-geek-sonic-1.svg">
  <title
     id="title3349">Amy Rose Tell Hi</title>
  <defs
     id="defs4" />
  <sodipodi:namedview
     id="base"
     pagecolor="#ffffff"
     bordercolor="#666666"
     borderopacity="1.0"
     inkscape:pageopacity="0.0"
     inkscape:pageshadow="2"
     inkscape:zoom="0.35"
     inkscape:cx="859.14287"
     inkscape:cy="288.57143"
     inkscape:document-units="px"
     inkscape:current-layer="layer1"
     showgrid="false"
     inkscape:window-width="1536"
     inkscape:window-height="877"
     inkscape:window-x="-8"
     inkscape:window-y="-8"
     inkscape:window-maximized="1" />
  <metadata
     id="metadata7">
    <rdf:RDF>
      <cc:Work
         rdf:about="">
        <dc:format>image/svg+xml</dc:format>
        <dc:type
           rdf:resource="http://purl.org/dc/dcmitype/StillImage" />
        <dc:title>Amy Rose Tell Hi</dc:title>
      </cc:Work>
    </rdf:RDF>
  </metadata>
  <g
     inkscape:label="Calque 1"
     inkscape:groupmode="layer"
     id="layer1">
    <path
       style="fill:#000000"
       d="m 314.96155,1025.0827 -12.52623,-1.2555 -37.58812,-7.4267 -37.58811,-7.4267 -5.16618,-15.30886 c -5.11492,-15.15686 -5.18802,-15.40907 -7.36598,-25.4092 -1.20989,-5.5552 -2.58914,-11.72366 -3.06498,-13.70766 -1.69016,-7.04686 -6.34067,-34.53053 -8.27684,-48.91468 -1.88059,-13.97127 -1.91023,-14.29596 -2.47493,-27.12671 -0.31436,-7.14241 -0.57388,-15.45359 -0.57671,-18.46927 l -0.005,-5.48306 2.84079,-8.75633 2.84077,-8.75634 1.86412,-1.57645 c 1.02527,-0.867 1.96365,-1.47184 2.08533,-1.34403 0.12169,0.12781 0.57782,1.23687 1.01365,2.46455 l 0.79239,2.23215 1.34751,-1.80845 c 0.74112,-0.99466 1.53213,-2.12903 1.75781,-2.52074 0.22568,-0.39175 4.41362,-5.97168 9.30653,-12.39986 7.7932,-10.23846 9.74684,-12.59999 15.75672,-19.04642 3.77328,-4.04736 10.31081,-10.82002 14.52784,-15.05031 l 7.66734,-7.69147 -0.62798,-4.27765 c -0.48038,-3.27224 -0.6049,-5.27987 -0.52976,-8.54151 0.0541,-2.34513 0.0327,-4.2623 -0.0474,-4.26038 -0.0801,0.003 -1.10862,0.57109 -2.28558,1.26483 l -2.13992,1.26134 -17.669,-0.13318 c -17.55588,-0.13231 -17.75555,-0.14048 -31.18544,-1.2758 l -13.51646,-1.14263 -25.37313,-4.30158 c -25.70528,-4.35788 -45.40213,-8.22733 -56.623,-11.12366 -21.895603,-5.65163 -44.264158,-16.30303 -62.370099,-29.69926 -2.262351,-1.67388 -5.063853,-3.8626 -6.22558,-4.86386 l -2.112213,-1.82048 -12.234929,-1.98565 c -6.729211,-1.09209 -12.748614,-2.05912 -13.376446,-2.14899 -0.627843,-0.0898 -1.183846,-0.29321 -1.235572,-0.45192 -0.127795,-0.39209 -0.148498,-0.38314 13.883747,-6.00384 l 12.380583,-4.95913 3.182426,-0.10064 3.182415,-0.10053 1.551328,-1.32678 c 0.853233,-0.72973 1.551329,-1.41683 1.551329,-1.52684 0,-0.11 -1.278106,-1.01202 -2.840248,-2.00445 -2.413917,-1.53359 -2.7528,-1.83966 -2.257631,-2.03904 0.320433,-0.12902 7.661397,-1.67653 16.313239,-3.43889 l 15.730622,-3.2043 19.517624,-6.36267 c 24.911615,-8.1211 40.828835,-13.71327 73.409575,-25.79087 14.41973,-5.34535 33.36202,-12.24555 42.09397,-15.33379 8.73195,-3.08819 15.98737,-5.72385 16.12314,-5.857 0.13579,-0.13315 -0.40157,-1.06706 -1.1941,-2.07534 -6.47761,-8.24085 -10.93259,-20.61893 -12.75986,-35.45304 -0.58194,-4.72421 -0.8816,-19.28626 -0.48884,-23.75476 0.19493,-2.21787 0.16707,-4.30568 -0.0963,-7.21438 -0.20383,-2.25129 -0.34195,-4.12165 -0.30693,-4.15633 0.0351,-0.0347 0.54696,-0.26314 1.13758,-0.50762 l 1.07391,-0.44451 7.32733,10.89641 c 4.03003,5.99298 8.25923,11.99983 9.39822,13.34846 6.86944,8.13394 16.26783,16.16527 22.65405,19.35884 1.82763,0.91396 6.84367,2.66846 7.20208,2.51912 0.11768,-0.0491 -0.80794,-3.53049 -2.05692,-7.73658 -1.24897,-4.20608 -2.27251,-7.84222 -2.27455,-8.08029 -0.003,-0.38379 0.69092,-0.38737 6.12145,-0.0316 3.36883,0.22073 6.17875,0.34823 6.24427,0.28329 0.0655,-0.0648 -0.84025,-4.79066 -2.01285,-10.50167 l -2.13199,-10.38368 -0.62563,-13.57591 -0.62564,-13.57595 1.33705,-13.40649 c 1.95126,-19.56524 2.66274,-23.83039 6.5449,-39.23462 1.78004,-7.06305 3.83376,-15.04663 4.56386,-17.74125 l 1.32745,-4.89935 2.47576,-3.55866 c 1.36168,-1.95728 2.42886,-3.59824 2.37153,-3.64663 -0.0573,-0.0483 -1.20631,-0.20305 -2.55332,-0.34373 l -2.44908,-0.2558 -14.71381,-21.0665 c -8.09302,-11.58658 -15.7983,-22.79929 -17.12326,-24.91714 l -2.40903,-3.85064 -3.58703,-2.10018 c -1.97287,-1.15511 -3.66906,-2.01956 -3.7693,-1.92102 -0.10019,0.0986 -1.13358,5.2438 -2.29634,11.43389 -1.16275,6.1901 -2.20696,11.35747 -2.32046,11.48306 -0.1135,0.12559 -0.81633,-0.004 -1.56187,-0.28859 l -1.35552,-0.51692 -11.24277,-18.90214 c -6.18353,-10.39617 -13.64197,-23.18758 -16.57431,-28.42534 l -5.33153,-9.52322 -1.4852,-12.55333 c -1.3566,-11.46634 -1.51372,-13.46536 -1.81463,-23.08657 -0.41082,-13.1356 -0.24443,-18.76909 0.89919,-30.44541 1.40643,-14.35951 6.22546,-43.6166 8.76991,-53.24341 0.48244,-1.82529 2.71548,-9.60275 4.96232,-17.28326 l 4.08516,-13.96456 -1.18579,-1.19693 c -0.65218,-0.65831 -1.18579,-1.35587 -1.18579,-1.55013 0,-0.19426 1.03198,-2.397 2.2933,-4.89497 1.26133,-2.49797 2.58643,-5.2191 2.94466,-6.04694 0.64944,-1.50073 0.64967,-1.50742 0.081,-2.28073 l -0.5703,-0.77557 2.74752,-5.79956 c 1.51114,-3.18977 5.12908,-9.92797 8.0399,-14.97378 5.2243,-9.05618 5.3781,-9.28264 11.95564,-17.60351 l 6.66325,-8.42931 -0.14427,-4.9059 -0.14429,-4.9059 0.94832,-1.87578 c 0.93627,-1.85193 0.95613,-1.97676 1.56201,-9.8118 0.33754,-4.3648 1.01699,-16.31211 1.50991,-26.54956 l 0.8962,-18.613548 1.75297,-9.37873 c 0.96413,-5.158287 1.85132,-9.508672 1.97155,-9.667503 0.1202,-0.158829 0.38684,-1.062643 0.59253,-2.008479 0.62194,-2.860069 2.35088,-7.974782 3.38058,-10.000807 0.8887,-1.748573 2.39411,-3.43006 3.07087,-3.43006 0.15163,0 2.40284,1.089135 5.00272,2.420291 2.59986,1.331156 9.77393,4.986739 15.94237,8.123499 13.70096,6.967199 32.38072,17.923658 50.52374,29.634278 l 12.21678,7.885457 8.61174,-1.822136 c 7.51066,-1.589161 10.0643,-1.986353 19.97273,-3.106574 6.7808,-0.766626 15.53018,-1.53676 21.70243,-1.910285 l 10.34143,-0.625835 7.60048,1.05574 c 4.18028,0.580645 7.7324,1.055729 7.89363,1.055729 0.16695,0 0.37314,-1.335421 0.47894,-3.102254 0.49616,-8.285099 3.10618,-18.016896 7.03548,-26.232479 6.87525,-14.37512 17.5067,-25.078258 32.34504,-32.56312 1.94766,-0.982455 4.11972,-2.176119 4.82679,-2.652588 6.93889,-4.675844 21.53834,-10.00111 34.70035,-12.65725 13.3957,-2.703296 29.03101,-3.217091 43.18553,-1.419126 3.10798,0.394783 6.65919,0.991083 20.55087,3.450766 3.13479,0.555052 5.79805,1.342068 13.12717,3.879218 l 9.19455,3.182901 2.13864,-0.441747 c 1.37282,-0.283565 2.23923,-0.342109 2.41951,-0.163496 0.1803,0.178613 0.0926,0.87129 -0.24495,1.934394 -0.52549,1.655048 -0.52815,1.657642 -4.01582,3.917261 -3.23176,2.093799 -4.76403,3.483822 -20.70721,18.784516 l -17.21721,16.523403 -8.07426,5.627359 c -4.4408,3.095043 -8.0759,5.699777 -8.07796,5.7883 -0.008,0.332907 9.84498,1.496944 20.38799,2.408728 l 10.92419,0.944748 4.95208,1.670945 c 27.88504,9.409058 48.0577,19.220354 56.87561,27.662354 l 2.10986,2.01992 5.46415,-1.4782 c 5.00568,-1.35417 16.75077,-4.15314 16.84073,-4.0133 0.0209,0.0326 0.26506,2.20197 0.5425,4.82085 2.01458,19.01737 2.82202,25.49862 3.21406,25.79916 0.51634,0.39581 12.97802,19.67711 12.97802,20.0802 0,0.42819 -0.13143,0.41423 -9.56645,-1.01563 -4.75214,-0.72018 -8.82407,-1.33702 -9.04869,-1.37076 -0.44713,-0.0672 -1.15936,2.39542 -5.28205,18.26361 -6.23044,23.9808 -8.9843,33.756 -9.75582,34.62987 -0.21021,0.23808 -0.80074,1.47177 -1.31236,2.74152 -1.40033,3.47551 -6.68202,18.14209 -6.57241,18.25069 0.0525,0.0521 7.55212,-4.66718 16.66558,-10.48733 9.11348,-5.82015 16.76237,-10.59718 16.99757,-10.61563 0.28277,-0.0223 0.54464,0.45517 0.77313,1.40937 1.80075,7.52034 -2.85082,14.45316 -13.61625,20.294 -5.71729,3.10195 -18.56659,7.24055 -22.54378,7.26107 l -0.87623,0.004 -1.02417,5.98808 -1.02422,5.98808 4.60322,12.26474 c 5.70989,15.21346 6.43589,17.33175 8.67885,25.32309 0.9912,3.53153 1.91264,6.42095 2.04768,6.42095 0.73386,0 16.68699,2.02755 16.79498,2.13456 0.0707,0.07 -3.32373,1.25366 -7.54322,2.63027 -4.2195,1.37664 -7.6979,2.52767 -7.72982,2.55786 -0.16484,0.15603 4.56046,14.171 4.76708,14.13891 0.13377,-0.0207 1.75683,-0.12594 3.60679,-0.23369 l 3.36362,-0.19586 1.73428,1.14831 c 2.79685,1.85191 6.32483,5.05219 8.32337,7.55022 4.83156,6.03912 6.92234,12.4819 6.10755,18.8206 -0.82088,6.3861 -8.10597,23.22242 -14.70152,33.97618 l -3.09302,5.04305 0,7.51162 0,7.51165 -1.6375,10.96477 c -1.32971,8.90374 -1.62908,11.58586 -1.59258,14.26894 0.0248,1.81732 0.0928,3.35156 0.1512,3.40943 0.0585,0.058 2.90526,-1.83824 6.32629,-4.21359 3.42106,-2.37539 11.267,-7.45968 17.43545,-11.29848 13.68508,-8.51661 12.77061,-7.90516 23.93518,-16.00329 5.02054,-3.6416 10.11141,-7.32639 11.31306,-8.18844 l 2.18481,-1.56738 3.93265,0.16905 c 6.83021,0.2936 12.88866,1.9639 16.88123,4.65409 5.15962,3.47654 7.29484,8.361 6.47295,14.80732 -1.15716,9.07608 -7.84627,20.51066 -20.27549,34.65954 -1.44687,1.64701 -4.20623,5.01884 -6.13189,7.49285 -3.991,5.12753 -2.51626,3.94596 -18.91603,15.15541 -7.1455,4.88403 -9.99923,6.67139 -11.59689,7.26342 -1.86235,0.69013 -11.17427,4.26489 -23.16349,8.89225 -2.12147,0.8188 -3.85239,1.55367 -3.84651,1.63302 0.005,0.0794 0.88793,0.79361 1.96016,1.58721 3.14909,2.33082 8.98376,8.13044 11.46789,11.39899 2.62086,3.44847 4.8745,7.73275 5.84436,11.11043 0.92082,3.20686 0.92589,9.19788 0.0107,11.93639 l -0.61397,1.83604 2.28552,4.94564 c 1.25706,2.72012 2.94151,6.2961 3.74325,7.94668 l 1.45768,3.00102 -0.63206,0.884 c -0.94684,1.32433 -16.74775,19.27312 -17.63429,20.03141 -0.42213,0.36108 -0.89859,0.75444 -1.05881,0.87417 -0.44445,0.33216 -17.53091,12.47537 -19.49394,13.85422 -0.9483,0.66608 -4.20535,3.51555 -7.23789,6.33216 -3.03257,2.81663 -6.17217,5.70737 -6.97695,6.4239 -1.14691,1.02112 -1.50295,1.55139 -1.64699,2.45295 l -0.18378,1.15017 -6.04464,1.96088 c -3.32455,1.0785 -6.04437,2.05246 -6.04409,2.16437 0,0.31817 2.72807,2.0799 3.57223,2.30765 l 0.75798,0.20449 -0.94847,2.88582 c -5.47901,16.67024 -19.68146,30.54276 -38.84156,37.93924 l -2.68713,1.03734 6.42816,4.86165 c 5.00931,3.78857 6.82409,5.34397 8.222,7.04672 0.9866,1.20177 2.58034,3.07317 3.54165,4.15861 9.81256,11.07977 16.04701,22.63596 18.10054,33.55117 0.74179,3.9429 0.74667,11.14406 0.01,14.57341 -1.30054,6.05315 -3.91986,11.4417 -8.20616,16.88206 -3.39962,4.3149 -12.99777,13.95011 -20.839,20.91943 l -2.7567,2.45015 -0.0239,3.03291 c -0.0477,6.04318 -0.57781,10.6079 -1.56944,13.51633 -1.65467,4.85275 -5.01033,11.61904 -9.3766,18.90664 -0.93602,1.56229 -1.70292,3.05569 -1.70423,3.31868 0,0.26302 0.47777,3.46501 1.06457,7.11558 l 1.06693,6.63738 2.61218,5.19448 c 1.4367,2.85697 4.23919,8.20898 6.22775,11.89334 l 3.61559,6.69886 -0.0825,3.228 -0.0825,3.22796 -0.93183,-0.77759 -0.93182,-0.77755 -6.05956,4.00852 c -5.32843,3.52486 -7.16673,4.54066 -15.23575,8.41892 -5.04691,2.42571 -10.32197,4.97889 -11.72235,5.67371 l -2.54614,1.26328 2.11971,3.24506 c 1.16583,1.78476 5.39216,8.8506 9.39187,15.70187 7.21285,12.35519 7.28168,12.45963 8.43741,12.79833 0.64087,0.18782 3.91809,1.42178 7.2827,2.7422 19.64731,7.7103 32.56783,14.96936 33.55094,18.84967 0.10426,0.41169 0.87596,1.79206 1.71478,3.06745 8.94595,13.6018 15.58654,31.95829 16.34181,45.17336 0.29754,5.20605 -0.55343,12.40011 -2.26996,19.18987 l -1.45892,5.77085 1.01611,4.04095 c 1.00076,3.97995 1.01807,4.1533 1.14644,11.47861 l 0.1303,7.43764 -2.41716,1.86977 c -1.32941,1.0284 -2.48391,2.09676 -2.56551,2.37417 -0.80061,2.72104 -2.21955,10.48008 -2.07339,11.33738 l 0.17678,1.0365 -2.41979,0.747 c -1.3309,0.4109 -8.64651,2.7031 -16.25692,5.0938 -10.989,3.4521 -15.63593,4.758 -22.57635,6.3447 -4.80659,1.0989 -9.98458,2.1404 -11.50668,2.3145 -1.52207,0.1739 -11.39438,1.3571 -21.93841,2.629 -10.54406,1.272 -20.11351,2.3082 -21.26546,2.3026 -1.15199,-0.01 -5.30615,-0.251 -9.23152,-0.5455 -6.93424,-0.5204 -7.33638,-0.5854 -14.15226,-2.2887 -6.42316,-1.6052 -8.7833,-2.4028 -27.96555,-9.451 -11.52269,-4.2338 -21.08143,-7.6968 -21.24166,-7.6956 -0.1602,0 -2.45425,1.2353 -5.09787,2.7424 -4.49232,2.561 -5.25417,2.8859 -11.65232,4.9694 -6.49698,2.1157 -7.33999,2.4787 -16.54733,7.1248 l -9.7016,4.8953 -10.98125,1.6923 -10.98126,1.6923 -19.66328,0.6056 c -10.8148,0.3331 -21.23634,0.5888 -23.15896,0.5682 -1.92264,-0.02 -9.1325,-0.6025 -16.02194,-1.293 z m 63.73629,-2.9996 15.96183,-2.0094 6.32321,-4.2722 6.32325,-4.2721 3.93265,-0.9656 c 12.99821,-3.1916 20.8958,-6.0225 23.00406,-8.2456 l 0.63999,-0.6749 -0.90648,-0.1972 c -0.82892,-0.1804 -0.89304,-0.2754 -0.74912,-1.1104 0.0865,-0.50218 0.35472,-2.17081 0.59592,-3.70806 0.31117,-1.98302 1.03153,-4.37162 2.47967,-8.22238 1.12262,-2.98506 1.93972,-5.46363 1.81587,-5.50793 -0.1239,-0.0443 -2.78147,-1.69525 -5.90575,-3.66871 l -5.6805,-3.58815 -0.14564,3.86005 c -0.0801,2.12301 -0.21121,3.91761 -0.29131,3.98799 -0.0801,0.0704 -7.61442,2.76775 -16.74289,5.99415 -13.99458,4.94626 -17.80896,6.17491 -24.32421,7.83493 l -7.72696,1.96876 -22.20911,3.02835 c -19.42943,2.6494 -22.41914,3.1225 -23.88723,3.7807 -1.04642,0.469 -2.99407,0.9492 -5.17384,1.2755 l -3.4957,0.5234 -20.39153,-2.1711 -20.39156,-2.1711 -9.75881,-2.9739 c -7.39814,-2.25451 -12.96508,-4.20939 -23.01331,-8.08132 -7.28999,-2.8091 -13.92112,-5.35566 -14.7359,-5.65905 -1.27024,-0.47298 -1.53127,-0.70547 -1.83118,-1.63086 -0.19237,-0.59356 -1.53056,-5.03999 -2.97376,-9.88097 l -2.62399,-8.80176 -4.0565,-29.14679 c -2.23107,-16.03074 -4.65674,-33.17253 -5.39034,-38.09286 -0.73363,-4.92032 -2.23458,-16.4131 -3.33545,-25.53952 -3.93001,-32.58063 -4.14634,-34.14149 -4.80659,-34.68151 -0.32582,-0.26651 -0.67664,-0.39637 -0.77959,-0.28858 -0.44839,0.46941 -3.19864,9.59287 -4.35231,14.43802 l -1.26105,5.296 0.62858,14.03901 c 0.6145,13.72433 0.67796,14.45375 2.83188,32.54617 1.96853,16.53534 2.54391,20.46643 5.40017,36.8953 l 3.19687,18.38804 6.7531,22.98555 c 3.71421,12.64203 6.78057,23.02413 6.81414,23.07143 0.0336,0.047 12.56282,2.4127 27.84276,5.2567 21.81259,4.0598 30.11806,5.7319 38.65545,7.7822 l 10.87371,2.6113 6.75041,0.3141 c 3.71272,0.1726 16.12325,0.6081 27.57893,0.9679 11.45567,0.3597 21.22177,0.6702 21.70243,0.69 0.48066,0.02 8.05673,-0.8683 16.83573,-1.9736 z m 137.55741,-3.8927 c 8.81081,-0.4723 16.6428,-1.0797 23.88725,-1.8524 5.92811,-0.6323 11.69601,-1.2392 12.81754,-1.3487 1.12154,-0.1095 5.84072,-1.0322 10.48708,-2.0503 6.91036,-1.5142 10.99291,-2.6394 22.4307,-6.182 7.69053,-2.3821 14.57268,-4.5215 15.29365,-4.7545 l 1.3109,-0.4235 3.05704,-7.47459 c 2.88902,-7.06371 3.1172,-7.51137 4.15114,-8.14441 0.60175,-0.36843 1.09689,-0.80154 1.10032,-0.96248 0.003,-0.16092 0.18396,-2.56519 0.40117,-5.34279 0.35379,-4.52453 0.34453,-5.39561 -0.0891,-8.36888 l -0.48399,-3.31869 -1.18132,2.02007 c -0.64974,1.11105 -1.85044,3.19152 -2.66824,4.62327 l -1.48689,2.60317 -5.4784,3.07405 c -3.01308,1.6907 -9.68656,5.15262 -14.82992,7.69312 l -9.35156,4.61911 -15.84656,2.49001 -15.84656,2.48997 -13.83713,0.81631 -13.83712,0.81631 -21.26547,-2.83976 c -11.69598,-1.56186 -24.14938,-3.22878 -27.67421,-3.70426 l -6.40877,-0.86451 -9.32186,-4.07833 c -5.12701,-2.24307 -9.60809,-4.191 -9.95793,-4.32871 -0.61011,-0.24015 -0.73193,0.0346 -2.9859,6.7334 -1.29242,3.84109 -2.34983,7.15898 -2.34983,7.37307 0,0.21411 0.45992,1.12741 1.02203,2.0296 l 1.02204,1.64035 22.35542,7.1024 22.35542,7.1024 9.32186,1.7279 c 5.12702,0.9504 9.64957,1.7413 10.05011,1.7576 0.40055,0.016 6.62725,-0.2868 13.83712,-0.6733 z m -192.9872,-14.1266 4.81078,-0.3815 1.87626,-1.2013 c 2.22576,-1.4251 1.80616,-1.3253 8.01978,-1.9082 2.72373,-0.2554 15.13318,-1.75203 27.57657,-3.32567 l 22.62434,-2.86117 11.89563,-4.19786 c 6.54261,-2.30883 14.67128,-5.33118 18.06376,-6.71632 l 6.16813,-2.51843 0.77611,-2.86013 c 0.65517,-2.41458 0.71127,-2.89604 0.36007,-3.09075 -0.22882,-0.12686 -0.71545,-0.47081 -1.08138,-0.76437 l -0.66538,-0.53376 1.30771,-18.10947 1.30768,-18.10953 0.95071,-0.97171 c 0.84773,-0.86647 0.9668,-1.19432 1.09919,-3.02748 0.0974,-1.34803 0.25996,-2.01028 0.47233,-1.92361 0.17814,0.0726 0.54602,0.22071 0.81756,0.32889 0.36345,0.14486 -0.0797,-1.22087 -1.68047,-5.17819 -1.89583,-4.68692 -2.36922,-6.2508 -3.69807,-12.21736 l -1.52392,-6.84241 -0.0813,3.82372 c -0.0447,2.10304 -0.17582,3.82349 -0.29131,3.8232 -0.11554,0 -0.59765,-0.61714 -1.07141,-1.37076 -0.47374,-0.75364 -0.94724,-1.43518 -1.0522,-1.51454 -0.39154,-0.29606 -11.63224,-16.25436 -11.63224,-16.5142 0,-0.14885 0.46571,0.0144 1.0349,0.36297 0.56918,0.3485 1.09986,0.56929 1.17925,0.49063 0.0794,-0.0786 -1.50437,-1.68426 -3.5195,-3.56804 l -3.66383,-3.42506 -12.44494,-7.03122 c -6.84471,-3.86714 -12.48193,-7.06377 -12.52711,-7.10357 -0.0451,-0.0398 0.59413,-1.22616 1.42074,-2.63631 1.20171,-2.05003 1.72856,-3.40259 2.62864,-6.74835 0.61912,-2.30145 1.12673,-4.18444 1.12795,-4.18444 0,0 -0.62028,-0.0352 -1.38121,-0.0782 -0.76092,-0.043 -6.62701,-0.47566 -13.03579,-0.96152 -9.71296,-0.73637 -14.15485,-1.23655 -26.68845,-3.00524 l -15.03612,-2.12183 -13.28457,-5.49154 c -15.94881,-6.59287 -15.75506,-6.50112 -15.49245,-7.33631 0.62291,-1.98092 1.06237,-1.29354 -7.41503,-11.59805 l -1.90172,-2.3116 -0.0189,4.47595 c -0.0253,6.02736 -0.99884,11.70209 -3.45338,20.13092 -0.56609,1.94395 -1.17636,4.73598 -1.35615,6.20452 -0.36925,3.01641 -4.72437,16.91764 -6.71311,21.42787 l -1.14523,2.59723 0.66886,1.9584 0.66884,1.95844 5.23755,-5.63684 c 2.88065,-3.1003 5.33585,-5.63732 5.45602,-5.63786 0.52642,-0.003 0.0656,0.79264 -2.27727,3.92945 -1.37267,1.83778 -2.45311,3.38365 -2.40096,3.43534 0.0522,0.0517 1.73237,-0.81372 3.73383,-1.92306 17.00938,-9.42769 33.81872,-15.47404 48.93736,-17.60279 3.85593,-0.54294 12.97037,-0.45253 16.45889,0.16328 5.54635,0.97905 10.05615,2.71317 14.24014,5.47561 2.30667,1.523 4.33947,3.3342 3.34833,2.98331 -12.19056,-4.31566 -28.17774,-4.75682 -44.6801,-1.23288 -12.76473,2.72578 -27.5581,8.28338 -39.38053,14.79454 l -2.38444,1.31321 4.80553,3.09018 4.8055,3.09017 5.96025,7.56377 c 6.56281,8.32841 5.99593,7.37636 12.77213,21.45013 l 3.99341,8.29409 2.12964,9.8866 2.12964,9.88656 0.18128,5.91594 c 0.0997,3.25376 0.21399,12.0251 0.25399,19.49185 0.0686,12.81648 0.0424,13.62177 -0.469,14.39503 -0.32339,0.489 -0.61962,0.69418 -0.73507,0.50912 -0.1467,-0.23515 -3.85472,9.39699 -4.89738,12.72169 -0.14398,0.4592 1.6e-4,0.4948 1.40464,0.347 0.86081,-0.091 3.72995,-0.3364 6.37591,-0.5462 z m -7.35975,-10.40122 3.85984,-10.80236 0.003,-13.65107 0.003,-13.65102 -3.68003,-14.86199 -3.68001,-14.86198 -1.8974,-3.17441 c -6.25792,-10.46952 -14.10397,-20.97262 -20.16582,-26.99479 -2.6014,-2.58439 -6.86729,-6.04475 -7.45885,-6.05041 -0.14597,0 -1.66803,0.5967 -3.38235,1.32913 l -3.11698,1.33164 -12.90496,11.75097 c -7.09781,6.46303 -15.33017,13.97607 -18.29423,16.69561 l -5.38918,4.94462 -0.23204,-1.78187 -0.23203,-1.78188 1.97988,-1.787 c 1.08892,-0.98285 9.05865,-8.33 17.7105,-16.32706 l 15.73061,-14.54009 0.01,-3.73948 0.01,-3.73947 2.23319,-5.10799 c 1.99314,-4.55894 5.77522,-14.38883 7.02834,-18.26717 0.67682,-2.09478 2.2863,-15.04252 2.33169,-18.75784 0.0212,-1.74592 0.007,-5.71361 -0.034,-8.81708 l -0.0729,-5.64271 -3.80311,-6.43463 c -3.76732,-6.37412 -3.84571,-6.54357 -8.33685,-18.02104 -2.4936,-6.37253 -4.6577,-11.90891 -4.80914,-12.30309 -0.26801,-0.69762 -0.30141,-0.67459 -1.25578,0.86574 -0.53923,0.87035 -1.10004,1.77372 -1.24623,2.00756 -0.23913,0.38249 -1.2909,-2.00054 -4.1865,-9.48535 l -0.26744,-0.6913 -0.75043,0.6913 c -0.41272,0.38023 -6.5616,7.24935 -13.66417,15.26473 -12.04449,13.59242 -13.6628,15.55247 -24.04192,29.11875 l -11.12817,14.54531 0.20256,3.63536 c 0.45881,8.23484 9.31686,74.38549 12.71737,94.97158 2.5694,15.55479 7.54613,43.31612 7.82327,43.63996 0.27932,0.32641 28.45757,10.44486 39.929,14.33798 l 10.34143,3.50956 13.98278,1.6859 c 7.69053,0.9271 14.04831,1.7001 14.12843,1.7177 0.0801,0.018 1.88257,-4.82903 4.00548,-10.77032 z m 227.00162,0.85974 c 12.74541,-1.21073 28.0082,-3.24234 28.55659,-3.80118 0.13198,-0.1345 2.98153,-4.98988 6.3323,-10.78968 3.35077,-5.79979 6.33032,-10.90491 6.62122,-11.34472 0.40876,-0.61802 0.91558,-3.79414 2.23148,-13.98439 l 1.7026,-13.18476 -0.17623,-7.64741 c -0.15044,-6.52644 -0.34167,-8.91215 -1.30469,-16.27515 l -1.12841,-8.62769 -3.65498,-6.93407 c -2.01023,-3.81376 -4.86425,-8.85163 -6.34224,-11.19532 l -2.68727,-4.26123 -3.06777,-1.58955 c -9.00786,-4.66738 -19.98543,-7.08469 -34.3653,-7.56737 -4.00216,-0.13438 -6.70125,-0.0571 -10.48707,0.30004 -10.32087,0.97373 -12.28525,1.36066 -25.71651,5.06554 -6.92477,1.91009 -12.76718,3.53772 -12.98318,3.61692 -0.28492,0.10454 -0.15393,0.41341 0.47734,1.12567 5.07458,5.72552 8.77125,16.66675 10.39237,30.75875 1.33562,11.61025 1.17881,29.7444 -0.31796,36.7671 -3.3487,15.71196 -10.77952,27.92989 -21.80655,35.85493 l -0.86372,0.62074 1.15873,0.3091 c 0.63729,0.17001 7.1228,1.02049 14.41221,1.88996 13.13033,1.56614 13.36184,1.58322 24.90584,1.83693 6.40877,0.14086 12.30776,0.27581 13.10885,0.29985 0.80109,0.024 7.55216,-0.53529 15.00235,-1.24301 z m -66.69874,-6.28414 c 2.6521,-2.55413 3.32155,-3.40265 4.92311,-6.23993 5.70689,-10.11033 9.49314,-22.71176 10.80559,-35.96334 0.48867,-4.93415 0.41471,-15.86543 -0.14253,-21.06649 -0.98313,-9.17614 -3.10665,-18.88384 -6.10211,-27.89615 -1.2189,-3.66725 -1.88083,-5.17569 -2.9818,-6.79507 -0.77832,-1.14478 -1.55171,-2.08629 -1.71866,-2.09223 -0.5816,-0.0207 -5.31345,2.85488 -17.74097,10.78117 l -12.50966,7.9787 -1.4003,-1.36632 c -0.77016,-0.75147 -1.39522,-1.50106 -1.38901,-1.66576 0.007,-0.16469 5.65158,-3.40978 12.54527,-7.21132 6.89372,-3.80155 12.58409,-6.99218 12.64529,-7.0903 0.0612,-0.098 -1.42671,-2.28484 -3.30649,-4.85934 l -3.4178,-4.68094 -4.91196,-10.88247 c -2.70162,-5.98536 -5.00092,-10.98311 -5.10955,-11.10616 -0.10865,-0.12307 -0.35939,1.43529 -0.55718,3.46298 -0.19779,2.0277 -0.50188,4.4431 -0.67573,5.36759 l -0.31609,1.68091 1.59171,1.63778 c 2.69098,2.76889 6.15717,6.69451 6.02587,6.82456 -0.0685,0.0679 -3.55276,-1.78317 -7.74283,-4.11338 -4.19007,-2.33022 -7.55227,-4.30414 -7.47158,-4.38656 0.0807,-0.0824 1.01373,-0.41118 2.07334,-0.73063 2.29318,-0.69136 1.9755,0.11006 3.45666,-8.72056 l 1.09484,-6.52744 -0.67187,-8.24617 c -0.89912,-11.03565 -0.65003,-10.12315 -2.94305,-10.78068 -1.03575,-0.29702 -2.99742,-0.88714 -4.35928,-1.31141 l -2.47611,-0.77143 3.98701,-0.1443 3.98704,-0.14429 -6.73061,-3.60728 c -3.70184,-1.984 -6.89607,-3.60727 -7.09827,-3.60727 -0.49866,0 -24.02429,27.48647 -25.64517,29.96282 -2.92784,4.47317 -7.18355,7.3854 -12.52559,8.57135 -1.87276,0.41577 -8.89459,0.33118 -11.21243,-0.13508 l -1.05474,-0.2122 -2.40611,4.13744 c -1.83565,3.15651 -2.55958,4.72469 -3.05349,6.61465 l -0.64744,2.47727 12.41056,6.58066 12.41053,6.58069 5.89249,5.79495 5.89249,5.79499 -0.75641,0.78215 -0.75642,0.78213 2.29228,3.75355 c 1.26074,2.06443 2.37141,3.66446 2.46816,3.55565 0.0968,-0.10883 0.4101,-1.82113 0.69631,-3.80514 0.4608,-3.19387 0.93639,-5.30003 1.01009,-4.47302 0.0413,0.46324 4.03699,15.4852 4.14091,15.56777 0.46192,0.36702 5.49334,3.62294 5.59858,3.62294 0.0756,0 0.17895,-0.35712 0.22967,-0.79359 0.0713,-0.61379 0.43909,0.0362 1.62311,2.86816 2.40905,5.76209 4.295,12.88346 5.37358,20.29055 0.59813,4.10779 0.50244,20.1106 -0.14754,24.67378 -0.45426,3.18887 -1.64998,9.48688 -2.11196,11.12374 -0.15096,0.53492 0.561,0.88249 7.56284,3.69224 10.3209,4.14162 18.34632,6.97553 23.47735,8.29021 2.32319,0.59524 4.35506,1.09321 4.51528,1.10663 0.16021,0.0134 1.67257,-1.30588 3.36078,-2.93176 z m 113.79473,-6.25433 11.86961,-6.03976 3.87445,-7.32275 3.87448,-7.32274 1.78013,-11.67199 1.78009,-11.672 -0.93463,-4.61731 c -2.90158,-14.33419 -7.76213,-29.4639 -12.00375,-37.36477 -2.43181,-4.52964 -2.85543,-5.02254 -4.80573,-5.59139 -2.48903,-0.72598 -19.14999,-4.49319 -19.28412,-4.3603 -0.063,0.0623 1.79262,3.59162 4.12341,7.84285 2.33081,4.25126 4.50909,8.31394 4.84066,9.02819 0.49566,1.06767 3.3642,13.1611 5.73891,24.19435 0.47812,2.2215 0.48959,2.96434 0.14947,9.6675 -0.35473,6.99007 -2.77476,28.18479 -3.51568,30.78991 -0.15942,0.56065 -2.39062,5.3465 -4.95812,10.6352 -2.56752,5.28871 -4.66824,9.66732 -4.66824,9.7303 0,0.063 0.0607,0.11447 0.13477,0.11447 0.0741,0 5.47603,-2.71788 12.00429,-6.03976 z m 5.04811,-93.24927 c -4.11103,-3.49583 -14.77248,-8.999 -26.36335,-13.60809 -2.50561,-0.99634 -12.92906,-4.84441 -13.12232,-4.84441 -0.037,0 -0.15342,0.45452 -0.25862,1.01005 -0.10523,0.55551 -0.31013,1.01003 -0.4554,1.01003 -0.51037,0 -2.10129,-2.65698 -3.33518,-5.57006 -0.93424,-2.20555 -16.21183,-29.41224 -16.96301,-30.20807 -0.0718,-0.0761 -1.53149,0.21901 -3.24384,0.65566 -1.7124,0.43662 -9.18553,2.34771 -16.607,4.24683 l -13.49361,3.45297 -7.84253,0.88572 -7.84254,0.88575 -14.90968,-6.36286 c -8.20034,-3.49955 -14.92856,-6.3314 -14.95161,-6.29298 -0.0229,0.0384 0.36507,4.68 0.86245,10.31457 0.79536,9.01012 0.98293,10.39277 1.55648,11.47368 0.35869,0.67594 2.74905,5.92725 5.31189,11.66951 2.56287,5.74227 4.71119,10.49147 4.77409,10.55377 0.0629,0.0623 0.42065,-0.0784 0.79504,-0.31256 0.37442,-0.23421 2.90924,-1.1821 5.63296,-2.10642 2.83512,-0.96211 6.05141,-2.28603 7.52335,-3.09687 3.10814,-1.7121 8.66352,-4.10793 12.43124,-5.36116 14.85832,-4.9422 30.97568,-5.19035 46.02663,-0.70861 2.38476,0.71008 3.17986,1.09573 2.87728,1.39547 -0.0784,0.0777 -0.59407,0.0197 -1.14581,-0.12917 -2.24648,-0.60568 -6.49523,-1.18858 -10.69104,-1.4668 -12.24555,-0.81196 -30.29604,1.89499 -48.11033,7.21489 -3.51801,1.05059 -4.22735,1.3811 -7.13705,3.32577 -1.77695,1.18757 -3.80675,2.65591 -4.5107,3.26294 l -1.27986,1.10371 2.03892,1.71953 c 1.12139,0.94573 2.39729,2.27095 2.8353,2.94494 0.43802,0.67396 0.90455,1.29161 1.03671,1.37252 0.13216,0.0809 5.22396,-1.54429 11.3151,-3.61157 9.47103,-3.21441 11.68076,-3.86043 15.25966,-4.46101 5.44378,-0.91358 13.32332,-1.7861 19.8877,-2.20223 7.58825,-0.48105 24.85405,-0.49285 28.98512,-0.0199 7.29176,0.83492 13.56848,2.37283 17.94337,4.39651 2.15416,0.99645 24.63381,8.30278 25.60715,8.32286 0.48118,0.0101 0.4051,-0.13895 -0.43696,-0.85498 z M 399.85936,858.95024 c 2.41847,-0.63387 2.50911,-0.69083 5.68052,-3.56941 4.25346,-3.86083 12.65945,-13.05067 14.6785,-16.04736 0.88295,-1.31046 4.6837,-5.75903 8.44612,-9.88576 7.24914,-7.95101 6.89242,-7.6663 9.18928,-7.33492 l 0.83424,0.12037 3.57913,-8.94606 c 1.96853,-4.92032 3.46621,-8.98766 3.32819,-9.03849 -0.3434,-0.12655 2.11932,-4.6566 2.5353,-4.66359 0.20597,-0.003 -0.66077,3.90992 -2.27464,10.27032 -1.43409,5.65174 -2.55783,10.32502 -2.49724,10.38504 0.0607,0.06 1.86443,0.46802 4.00854,0.90667 l 3.89837,0.79752 1.21353,2.26023 c 0.66745,1.2431 1.39472,2.43573 1.61618,2.65026 0.22142,0.21452 4.993,2.84516 10.60343,5.84584 l 10.20082,5.45576 9.86213,3.25656 9.86212,3.25656 18.88195,-5.73525 18.88196,-5.73525 -0.16772,-1.22647 c -0.0923,-0.67457 -0.0516,-1.22501 0.0903,-1.22325 0.14193,0.003 1.16203,0.56954 2.26688,1.26168 l 2.00876,1.25843 3.3901,-1.76668 c 1.86457,-0.97168 9.56317,-4.99622 17.10801,-8.94342 l 13.71789,-7.17672 -0.42441,-1.61012 c -0.23345,-0.88554 -0.95761,-2.59077 -1.60927,-3.78937 -2.47839,-4.55862 -7.99667,-13.85044 -10.28707,-17.32168 -4.98066,-7.5485 -10.01566,-15.68024 -9.8617,-15.92699 0.2042,-0.32732 1.11358,0.42666 5.90853,4.89881 2.14421,1.99988 3.81891,3.38204 3.72155,3.07147 -0.0974,-0.31057 -0.64198,-2.80876 -1.2102,-5.55157 l -1.03318,-4.9869 2.20872,-2.51624 c 10.19685,-11.61652 13.80301,-26.32593 10.46648,-42.69244 -1.22874,-6.02726 -2.68831,-9.89448 -5.77905,-15.3118 -1.51424,-2.65411 -4.06592,-7.21351 -5.67039,-10.13197 l -2.91721,-5.30633 -3.37201,10.22662 c -1.85461,5.62461 -3.37201,10.35444 -3.37201,10.51072 0,0.15626 0.42605,0.53088 0.94676,0.8325 1.54803,0.89671 4.54431,3.90605 5.89461,5.92035 2.21682,3.30695 3.625,7.06008 4.38065,11.67546 0.67774,4.13945 0.51044,12.30105 -0.23383,11.40725 -0.0622,-0.0747 -0.67435,-2.34358 -1.36017,-5.04182 -1.75259,-6.89515 -3.5435,-12.13047 -5.52823,-16.1606 -1.61278,-3.27489 -3.95466,-6.43989 -4.27057,-5.77165 -1.54315,3.26413 -11.39667,25.42173 -11.3343,25.48747 0.0481,0.0507 3.31874,-1.99462 7.26804,-4.54517 3.9493,-2.55058 7.30478,-4.6374 7.45664,-4.6374 0.15185,0 0.27499,0.74671 0.27363,1.65935 l -0.003,1.65934 -3.56602,2.02008 c -25.17368,14.26032 -47.5568,19.09857 -63.86676,13.80516 -2.94978,-0.95734 -4.9224,-1.96461 -14.27408,-7.28878 -4.1657,-2.37165 -7.61388,-4.20253 -7.66264,-4.06862 -0.0487,0.13389 0.563,2.23518 1.35947,4.66948 l 1.44812,4.42605 0.43055,8.90422 0.43059,8.90424 -1.28024,3.78138 c -1.43292,4.23223 -1.46371,4.46788 -0.82586,6.32234 0.55853,1.62383 0.0558,1.51922 9.59571,1.9963 6.72405,0.33626 8.0872,0.31522 17.77079,-0.27404 l 10.48813,-0.63822 18.43769,-4.037 c 10.14074,-2.22036 18.62488,-4.03702 18.85367,-4.03702 0.2288,0 0.61781,0.38664 0.86449,0.85923 0.43066,0.82505 0.42228,0.86514 -0.21099,1.00778 -3.97447,0.89513 -9.30009,2.16365 -23.53116,5.60499 l -16.75415,4.0515 -13.18174,0.68722 c -7.24997,0.37802 -13.23502,0.74001 -13.30009,0.80451 -0.19768,0.19583 17.62249,9.64423 18.03259,9.56099 0.21001,-0.0426 7.03225,-2.54823 15.16057,-5.5681 8.12829,-3.01988 14.83892,-5.43104 14.91247,-5.35817 0.49034,0.48574 -3.26666,4.56794 -5.7396,6.23647 -6.30976,4.25728 -15.01768,6.35182 -26.41495,6.35368 l -5.0038,0 -3.40468,-1.94793 c -2.37148,-1.3568 -5.12192,-3.35332 -9.06361,-6.57922 -4.85602,-3.97414 -6.0157,-4.78197 -8.17357,-5.69338 l -2.51465,-1.06209 -1.33338,1.07381 c -0.73333,0.59061 -5.11115,4.16125 -9.72847,7.93469 -4.61729,3.77346 -8.52976,6.77842 -8.69434,6.67765 -0.19314,-0.11827 -0.16023,-0.30542 0.0928,-0.5278 0.21565,-0.18951 1.90313,-1.65505 3.74994,-3.25676 4.4853,-3.89003 10.74786,-10.30337 13.1851,-13.50252 1.08765,-1.42765 2.46409,-3.56206 3.05873,-4.74308 l 1.08118,-2.14738 0.0936,-4.60877 c 0.0911,-4.4893 0.0741,-4.64412 -0.65542,-5.97201 -0.41192,-0.74976 -0.74896,-1.44458 -0.74896,-1.544 0,-0.0995 0.54504,-0.0945 1.21121,0.011 l 1.21119,0.19187 -0.16908,-3.76591 -0.16907,-3.76593 -2.39496,-6.30647 c -1.31726,-3.46856 -2.42462,-6.3437 -2.4608,-6.38919 -0.0361,-0.0455 -1.75426,1.62703 -3.81788,3.71675 -2.26104,2.28963 -6.38856,5.92237 -10.38673,9.14164 -3.6491,2.9382 -6.58429,5.3921 -6.52268,5.45314 0.0616,0.061 2.90097,-0.8663 6.30967,-2.0608 6.08767,-2.13326 6.99893,-2.38824 6.98775,-1.95534 -0.003,0.11903 -5.97068,3.51405 -13.26133,7.54448 -7.29063,4.03043 -13.21523,7.36815 -13.16577,7.41715 0.0494,0.0491 4.44945,-0.44038 9.77767,-1.08755 8.5872,-1.04302 10.40863,-1.169 9.92115,-0.68608 -0.20223,0.20037 -6.08414,1.41793 -13.94898,2.88749 -3.92537,0.73347 -8.27247,1.65229 -9.6602,2.04181 -4.53639,1.27337 -8.02073,1.66714 -13.19686,1.49142 -8.99792,-0.30546 -15.51625,-2.61502 -22.91707,-8.11987 -12.72301,-9.46358 -19.55123,-19.09835 -21.26689,-30.00815 -0.53088,-3.37575 -0.15258,-10.44573 0.73744,-13.78257 1.90707,-7.15004 6.01641,-14.59271 11.08115,-20.06977 l 1.72821,-1.86892 -0.63135,-2.75559 c -0.34727,-1.51557 -0.68446,-2.80815 -0.74931,-2.87242 -0.0649,-0.0642 -1.95619,-0.30778 -4.20296,-0.54115 l -4.085,-0.42433 -20.80445,1.59978 c -11.44243,0.87991 -21.98849,1.70806 -23.43572,1.84035 -2.43023,0.22215 -2.90695,0.37904 -6.23984,2.05384 -1.98468,0.99734 -3.64044,1.83835 -3.67945,1.86891 -0.0751,0.0589 4.60045,21.02483 4.71707,21.15236 0.0954,0.10443 7.24707,-2.82617 7.52383,-3.08319 0.12448,-0.11563 -0.0907,-3.77142 -0.47839,-8.12403 -0.3876,-4.35256 -0.60002,-7.97867 -0.47205,-8.05804 0.12799,-0.0794 8.23494,-1.56565 18.01546,-3.30284 19.26649,-3.42214 18.04399,-3.31284 19.9774,-1.78562 l 0.80624,0.63684 -16.70705,3.99607 c -9.1889,2.19784 -16.74478,4.02681 -16.79089,4.06441 -0.0461,0.0376 0.58888,3.53081 1.41109,7.76269 0.82225,4.23186 1.43151,7.85813 1.35398,8.05832 -0.0776,0.20019 -2.71856,1.45295 -5.86887,2.78388 -3.15032,1.33093 -5.77628,2.49751 -5.83549,2.59243 -0.092,0.1475 7.8066,17.39518 11.17272,24.39709 0.87377,1.81757 3.57084,5.41789 12.67968,16.92603 l 11.56986,14.61741 3.91779,2.93668 c 2.15477,1.61518 3.85073,3.04415 3.76879,3.17552 -0.0819,0.13137 -0.83707,0.32532 -1.67804,0.43105 -0.84098,0.10575 -1.73903,0.25037 -1.99567,0.32149 -0.71542,0.19822 -10.96382,-11.5751 -20.32399,-23.3481 l -8.0731,-10.1542 -7.82793,-16.30489 -7.82795,-16.30489 -3.5533,-11.02771 c -1.9543,-6.06524 -3.78966,-11.38511 -4.07858,-11.82192 -0.49184,-0.74363 -0.53918,-0.75809 -0.74394,-0.22699 -0.12028,0.31196 -0.62593,5.89155 -1.12369,12.39909 -0.49775,6.50752 -0.9732,12.25137 -1.05651,12.76413 -0.13471,0.82907 -0.72248,1.3271 -5.31008,4.49951 -12.69334,8.7777 -13.72479,9.39733 -20.90085,12.55557 -8.49862,3.74038 -10.42678,5.17126 -12.89868,9.57226 -2.16409,3.85293 -2.92207,10.17849 -1.95386,16.30537 0.53463,3.38308 1.99956,8.73954 3.13794,11.47371 l 0.69215,1.66241 0.83686,-1.73456 c 0.46028,-0.95399 0.91275,-1.73454 1.0055,-1.73454 0.0928,0 2.38319,5.32569 5.08987,11.83486 2.70667,6.50915 4.96251,11.79396 5.01298,11.74395 0.0504,-0.05 -0.0501,-1.3175 -0.22348,-2.81665 -0.36398,-3.14749 -0.13976,-8.39096 0.45278,-10.58794 0.79424,-2.94486 2.1459,-4.91109 4.316,-6.27836 0.53393,-0.33641 0.96606,-5.04675 1.38986,-15.15057 0.14311,-3.41249 0.46461,-7.34196 0.7144,-8.73215 0.62696,-3.48924 1.97368,-7.4662 3.36807,-9.94633 1.20017,-2.13462 4.1563,-5.56787 4.50313,-5.22998 0.1062,0.10355 -0.27643,0.83565 -0.85034,1.62703 -2.77026,3.81996 -4.90185,10.62629 -6.43574,20.54994 -0.25757,1.66655 -0.45811,3.99241 -0.44556,5.16857 0.0248,2.3229 0.66704,7.09537 1.37379,10.20767 l 0.44445,1.95715 -1.05929,1.16155 c -2.48065,2.72009 -4.27578,6.32248 -4.98792,10.00962 -1.18145,6.11716 0.49159,13.2721 4.88952,20.9107 2.6019,4.5191 5.70057,8.43999 11.40784,14.43484 4.48356,4.70946 5.10192,5.47746 5.42939,6.74331 l 0.36959,1.4285 7.31646,3.51444 c 6.53456,3.13888 8.06358,3.74542 14.30782,5.67581 3.84527,1.18876 7.9636,2.49165 9.15185,2.89532 1.33263,0.45273 3.3976,0.84802 5.38919,1.03162 1.77581,0.16372 7.42357,0.7448 12.55059,1.29131 5.12701,0.54653 14.82756,1.51887 21.55677,2.16077 8.97251,0.85588 12.89121,1.34531 14.69618,1.83555 l 2.46127,0.66851 3.07359,-0.82247 c 1.69048,-0.45235 4.17953,-1.11231 5.53129,-1.4666 z m -48.67068,-39.97478 c -1.85595,-2.17625 -10.87626,-12.72254 -20.04509,-23.43616 -9.16886,-10.71361 -16.88231,-19.789 -17.14102,-20.1675 -0.46213,-0.67619 -0.43742,-0.7177 1.40952,-2.37123 1.03397,-0.92563 1.97101,-1.68731 2.08233,-1.69257 0.22407,-0.011 18.51292,11.70984 19.10239,12.24184 0.20339,0.18354 0.45383,1.225 0.55651,2.31436 0.16736,1.77565 0.13625,1.96147 -0.30059,1.79539 -0.268,-0.1019 -3.71686,-2.20385 -7.66411,-4.67104 -3.94725,-2.46721 -7.21368,-4.44931 -7.25873,-4.40466 -0.045,0.0446 2.4812,3.00128 5.61389,6.57036 3.13267,3.56906 11.00529,12.98229 17.49469,20.9183 6.48942,7.93602 11.95877,14.59912 12.1541,14.8069 0.28985,0.30829 1.63618,-0.0818 7.31893,-2.12054 16.74268,-6.0066 29.4465,-11.49169 35.6545,-15.39446 1.76072,-1.10689 4.3727,-3.41256 4.3727,-3.85985 0,-0.15648 0.80591,-1.13791 1.79088,-2.181 1.5767,-1.66973 1.72474,-1.92206 1.23805,-2.1099 -0.43821,-0.16915 -22.68015,-2.61127 -30.52186,-3.35123 -1.50035,-0.14157 -2.22297,-0.4686 -5.84119,-2.64326 -13.09283,-7.86921 -20.2407,-12.33675 -20.25279,-12.65822 -0.016,-0.42292 1.20437,-2.36791 1.48892,-2.3732 0.10545,-0.003 0.89823,0.56651 1.76166,1.26325 7.46351,6.02287 20.22525,11.62259 32.63501,14.31993 9.18984,1.99749 16.44421,2.70181 27.82427,2.7014 4.84663,-1.8e-4 8.81206,0.0997 8.81206,0.22197 0,0.18259 -1.62706,3.08122 -1.88608,3.36012 -0.042,0.0452 -2.28938,0.27241 -4.99414,0.50487 -4.47994,0.38499 -4.96448,0.48043 -5.44248,1.07205 -6.02139,7.4524 -12.28034,12.34994 -21.32335,16.68518 -10.12875,4.85577 -19.94995,7.3381 -33.50852,8.46929 l -1.75595,0.14651 -3.37451,-3.9569 z m -65.31063,32.76523 c -0.0808,-0.19841 -0.14693,-0.0361 -0.14693,0.36072 0,0.3968 0.0661,0.55912 0.14693,0.36073 0.0808,-0.1984 0.0808,-0.52305 0,-0.72145 z m 137.02899,-82.30832 c 0.10662,0.0653 0.81134,-0.52725 1.56592,-1.31677 0.75459,-0.78953 4.31351,-4.05014 7.90872,-7.24576 6.46828,-5.74942 6.58882,-5.87801 11.51385,-12.28119 5.44981,-7.08547 4.89767,-6.63046 7.26092,-5.9834 0.29465,0.0807 3.29141,-3.06794 8.85072,-9.29913 8.6948,-9.74565 9.71394,-11.06678 23.2296,-30.11311 l 3.37891,-4.76162 1.51122,-4.71898 c 0.83115,-2.59545 1.45216,-4.77744 1.38001,-4.84893 -0.0721,-0.0714 -0.41546,0.32576 -0.76293,0.88272 -0.64388,1.03205 -3.3783,3.63501 -3.81862,3.63501 -0.50897,0 -0.54337,-0.55557 -0.12159,-1.96264 0.92133,-3.07333 3.44396,-16.33641 4.37458,-22.99972 0.65952,-4.7223 0.62758,-7.74269 -0.12506,-11.83187 -3.16652,-17.20376 -10.65429,-31.59614 -20.369,-39.15151 -1.07327,-0.8347 -3.00007,-2.48507 -4.28182,-3.66754 -9.52691,-8.78882 -19.93765,-14.48241 -29.32286,-16.0365 -2.9852,-0.49435 -6.97824,-0.38056 -8.42275,0.23998 -0.4122,0.17708 -8.53969,5.53397 -18.06109,11.90422 -9.52135,6.37021 -17.83592,11.86984 -18.4768,12.22139 -0.64087,0.35153 -1.82068,1.12507 -2.62177,1.71897 -0.8011,0.59387 -4.2094,2.94542 -7.57401,5.22559 -8.03552,5.44569 -21.8978,16.16196 -27.22178,21.0439 -3.96248,3.63348 -4.5111,4.2724 -8.39747,9.77992 -4.03027,5.71138 -4.14424,5.91327 -3.70925,6.57092 0.49467,0.74789 -2.06828,2.8464 27.62291,-22.61754 3.14485,-2.69706 5.62029,-4.61622 5.80697,-4.50192 0.20408,0.12497 -0.11146,0.58403 -0.84646,1.23154 -0.64453,0.56778 -8.19336,7.4442 -16.77523,15.28094 -9.3677,8.5544 -16.18694,14.56483 -17.06371,15.03977 -0.80318,0.43513 -3.47061,2.63696 -5.92758,4.89294 -4.46269,4.09758 -4.46744,4.1033 -4.62524,5.56635 -0.25038,2.3209 0.19268,5.32922 1.0365,7.03778 2.00246,4.05457 6.77052,5.55246 13.58185,4.2667 2.33236,-0.44026 3.09189,-0.4195 17.93868,0.48985 8.52675,0.52227 15.55906,0.89146 15.62738,0.82047 0.0684,-0.071 6.60142,-8.98415 14.51799,-19.80696 l 14.39379,-19.67781 9.26297,-9.39523 c 5.09466,-5.16738 9.38038,-9.32333 9.52388,-9.23549 0.14347,0.0878 0.25261,1.74285 0.24251,3.67781 l -0.0184,3.5181 -8.98463,8.36889 -8.9846,8.36888 -13.49089,20.34505 c -8.22625,12.40562 -14.04206,21.4712 -14.90328,23.23085 -0.77681,1.58721 -3.5272,7.14499 -6.11199,12.35063 l -4.69965,9.46484 0.34663,5.54144 c 1.41665,22.64764 9.02276,36.51066 21.80943,39.75035 2.58003,0.65366 4.18181,0.73229 4.16684,0.20455 -0.005,-0.19841 -0.18603,-1.17238 -0.40088,-2.16438 -0.21483,-0.992 -0.31085,-1.80364 -0.21334,-1.80364 0.0975,0 1.03163,0.91325 2.07589,2.02946 l 1.8986,2.02945 6.68304,1.51817 6.68303,1.51818 5.97265,-2.23134 c 3.28499,-1.22726 6.05996,-2.17793 6.16665,-2.11263 z m 79.77884,-13.44424 c 7.2404,-0.51417 14.78332,-2.14273 23.23485,-5.01653 6.4224,-2.18383 6.258,-2.08152 7.76403,-4.83016 1.44405,-2.6355 3.69031,-8.02473 3.69031,-8.85381 0,-0.56857 2.15326,-5.97341 2.58976,-6.50051 0.25259,-0.30504 7.9044,-18.87322 9.05233,-21.96677 0.99933,-2.69307 4.06831,-17.84488 5.96215,-29.43537 1.43678,-8.79349 2.14369,-14.22436 2.96743,-22.798 1.02947,-10.71492 1.06415,-11.42771 0.72293,-14.86198 -1.47229,-14.81849 -6.92344,-26.10422 -15.75975,-32.628 -3.66704,-2.70736 -9.53893,-4.95083 -14.04348,-5.36558 -1.08815,-0.10013 -1.97844,-0.2833 -1.97844,-0.4069 0,-1.17773 -10.33325,-1.3952 -15.34889,-0.32306 -3.45428,0.73839 -8.17795,2.17013 -12.06001,3.65534 -3.28627,1.2573 -11.33504,5.06243 -11.33504,5.35877 0,0.11579 1.09197,1.62082 2.42657,3.34454 l 2.42656,3.13403 2.84007,11.2547 2.84005,11.2547 1.30386,15.29486 1.30385,15.29485 -3.27588,10.94267 -3.27588,10.9427 -3.6088,6.37222 c -3.62411,6.39928 -10.13973,15.8793 -13.71579,19.95611 -3.25171,3.707 -4.69825,6.82451 -5.33651,11.50082 -0.7555,5.53559 1.74846,15.54553 4.55341,18.20268 3.51051,3.32556 10.74314,5.8959 18.19068,6.46461 1.69763,0.12966 3.2177,0.25275 3.37792,0.27354 0.16023,0.0207 2.18149,-0.0964 4.49171,-0.26047 z m -281.23412,-4.43429 c 6.56899,-1.1719 12.58736,-2.21957 13.37418,-2.32814 1.36262,-0.18804 7.40592,-1.91114 10.51304,-2.99754 0.93736,-0.32774 4.6756,-2.83531 10.48708,-7.03464 6.93461,-5.01088 12.34348,-9.28569 23.30463,-18.41833 7.85075,-6.54109 16.89586,-14.00827 20.10024,-16.5937 5.32516,-4.29659 6.62776,-5.54979 15.148,-14.5735 16.48579,-17.45991 23.89916,-25.79667 28.9787,-32.58814 2.55229,-3.41249 4.94151,-6.55641 5.3094,-6.98648 0.36786,-0.43009 4.73259,-4.16805 9.69939,-8.30661 l 9.03054,-7.52461 27.4728,-17.81011 c 15.11005,-9.79555 28.17084,-18.18 29.02399,-18.63217 1.43049,-0.7581 1.89948,-0.84017 6.02759,-1.05487 2.46202,-0.12805 6.28063,-0.40116 8.4858,-0.60689 l 4.00941,-0.37411 1.67109,0.80427 c 4.45416,2.14365 11.87492,6.83876 16.74706,10.59587 13.07603,10.08344 22.77011,22.52149 26.73493,34.30249 1.58263,4.70269 3.94215,17.43293 4.25408,22.95207 l 0.17938,3.17441 -3.07895,11.25469 c -1.6934,6.1901 -3.15949,11.77416 -3.25796,12.40904 l -0.179,1.15434 1.33932,-1.41057 c 3.71001,-3.90749 6.57501,-11.33429 7.91652,-20.52168 0.37575,-2.57338 0.50705,-5.39045 0.51116,-10.96613 0.008,-9.56672 -0.68816,-16.09604 -2.91891,-27.41531 -0.81845,-4.15292 -1.25025,-5.65739 -2.15358,-7.50313 -1.96612,-4.01738 -6.75997,-10.8777 -11.73297,-16.79061 l -2.22882,-2.65004 -2.18933,0.58953 -2.18933,0.58958 -7.72487,-4.1333 c -4.24866,-2.27333 -7.72486,-4.23553 -7.72486,-4.36046 0,-0.3933 0.68404,-0.27429 10.28333,1.78913 l 9.37995,2.01629 1.75381,1.80742 c 0.96458,0.99411 2.75557,2.88814 3.97994,4.209 l 2.2261,2.40153 8.95842,-3.62745 c 4.92715,-1.99512 9.01421,-3.68272 9.08233,-3.75021 0.0683,-0.0675 -1.264,-1.85959 -2.96035,-3.98244 l -3.08424,-3.85967 -6.04537,-2.2089 c -3.32493,-1.21486 -7.00362,-2.4809 -8.17486,-2.81338 -1.17125,-0.33248 -3.33422,-1.21525 -4.80657,-1.96169 l -2.67706,-1.35718 -4.66093,0.1799 c -2.56352,0.0989 -9.11794,0.27381 -14.56541,0.38861 l -9.90445,0.2087 -18.49805,4.48399 -18.49805,4.48396 -9.03053,4.60297 c -4.96681,2.53164 -13.15984,6.52285 -18.20675,8.86937 -5.0469,2.34649 -10.78436,5.02061 -12.74991,5.94247 l -3.57367,1.67605 0.78502,0.81171 c 0.43178,0.44647 0.70744,0.88864 0.61256,0.9826 -0.0949,0.094 -5.39438,2.67173 -11.77673,5.7283 l -11.60424,5.55743 -38.16132,25.77484 c -35.07305,23.68895 -40.34821,27.3612 -65.18428,45.37735 l -27.02297,19.60252 -20.89717,0.51587 -20.89717,0.51585 -21.99373,-0.64761 -21.99374,-0.64764 -14.12844,-2.62587 c -7.77063,-1.44424 -18.030618,-3.53643 -22.799964,-4.64932 l -8.671537,-2.02348 -13.759172,-7.03999 -13.759161,-7.03996 -6.300198,0.68922 -6.300198,0.68922 -8.154967,3.54586 -8.154958,3.54588 9.05362,1.81875 9.05363,1.8188 5.526948,3.92001 c 7.784695,5.52133 9.458572,6.47711 27.312777,15.59567 l 15.919175,8.13029 16.707295,5.60516 c 16.20295,5.43596 16.97196,5.66236 25.47461,7.49976 l 8.76732,1.8946 18.61562,0.5866 c 18.19339,0.57326 46.87804,1.1407 48.0377,0.95026 0.32044,-0.0527 5.95725,-1.05447 12.52624,-2.22637 z m 354.26005,-22.32657 4.08869,-2.53536 3.89374,-4.60705 c 2.14152,-2.53386 5.04946,-5.81346 6.46211,-7.28794 5.53758,-5.78021 8.84096,-11.81931 10.4782,-19.15593 1.27041,-5.69276 0.84895,-13.52351 -1.06908,-19.8633 -3.86704,-12.78211 -13.23205,-26.18309 -27.595,-39.48751 -4.64922,-4.30653 -6.06366,-5.37364 -8.1778,-6.16942 -1.19066,-0.44819 -1.60479,-0.48791 -2.26459,-0.21716 -1.57409,0.64591 -2.199,3.25489 -1.71225,7.1485 0.61902,4.95176 1.00559,5.92688 3.79757,9.5788 6.30999,8.2535 10.42763,16.38015 12.64795,24.96235 1.39256,5.38267 1.70925,8.46567 1.52065,14.80458 -0.174,5.84812 -0.65743,8.78168 -2.28712,13.87877 -1.53158,4.79028 -5.74793,12.7282 -6.76076,12.7282 -0.45327,0 -2.81088,2.41641 -2.81088,2.88097 0,0.5419 5.32679,15.87688 5.51501,15.87688 0.10169,0 2.02479,-1.14092 4.27356,-2.53538 z M 203.90808,718.15339 c 2.99122,0.0519 3.69992,-0.0324 5.53483,-0.65742 1.15742,-0.39432 3.02201,-0.98031 4.14353,-1.30222 1.9544,-0.56098 2.62042,-1.04193 16.02194,-11.56998 13.99057,-10.99077 19.39469,-15.0829 34.66561,-26.24958 9.30508,-6.80422 38.57429,-26.65133 48.96416,-33.202 3.83181,-2.41591 7.07365,-4.48683 7.20407,-4.6021 0.13043,-0.11523 -1.0072,-0.14504 -2.52803,-0.0661 -8.69713,0.45064 -18.79501,-3.13951 -25.87277,-9.19873 -1.76911,-1.51451 -1.67883,-1.53127 -2.1108,0.39163 -0.35607,1.58495 0.0428,2.33154 -7.28414,-13.6355 -4.6829,-10.20513 -4.71274,-10.28336 -7.73239,-20.27291 l -3.03135,-10.02822 -1.03694,0.009 c -1.68416,0.0142 -9.65966,0.78964 -9.82706,0.9555 -0.0847,0.0838 0.3737,1.49196 1.01848,3.12921 1.88736,4.79251 7.66464,20.49557 7.5684,20.57149 -0.0485,0.0382 -4.47955,2.28626 -9.8469,4.99565 -5.95529,3.00616 -14.18678,6.83164 -21.11979,9.81514 -15.93801,6.85859 -57.4222,22.79138 -126.7189,48.66881 -8.1712,3.05135 -24.000129,8.84741 -35.175433,12.88008 -11.175294,4.03268 -20.316867,7.39841 -20.314592,7.47936 0.0021,0.081 2.001358,1.04279 4.442445,2.13741 2.441078,1.0946 8.227098,3.93831 12.857827,6.31938 l 8.419513,4.32919 23.18739,4.71709 23.18739,4.7171 35.97651,-0.19521 c 19.78708,-0.10739 37.52023,-0.16841 39.407,-0.13569 z m 117.3166,-81.07272 c 1.04142,-0.16155 3.59764,-0.83201 5.68049,-1.48991 3.34393,-1.05622 4.32362,-1.53013 8.37335,-4.05066 4.08711,-2.54381 4.64531,-2.9866 5.12803,-4.06768 0.52212,-1.16926 0.90954,-1.42061 10.70733,-6.94735 5.59109,-3.15384 13.5169,-7.83657 17.61296,-10.40608 l 7.44735,-4.67183 12.50724,-4.40074 c 6.87897,-2.42039 15.45673,-5.47105 19.06166,-6.77923 3.60494,-1.30817 8.48798,-2.88063 10.85123,-3.49432 2.64237,-0.68622 4.29677,-1.25472 4.29677,-1.47656 0,-1.29836 -22.07446,-17.76997 -24.26978,-18.10971 -0.51058,-0.079 -3.74675,-0.34722 -7.19145,-0.59602 -3.44472,-0.24878 -7.77065,-0.72128 -9.61316,-1.04994 -1.84253,-0.32867 -3.84285,-0.59237 -4.44518,-0.58602 -0.60232,0.007 -4.33833,0.92438 -8.30227,2.04004 -6.72663,1.89324 -8.64433,2.27901 -28.76391,5.78633 -20.24264,3.52882 -21.89435,3.86173 -27.09411,5.46122 -5.43146,1.67077 -5.58061,1.69914 -7.80341,1.48354 -1.24632,-0.12089 -2.32629,-0.27944 -2.39984,-0.35232 -0.0735,-0.0729 6.28335,-2.44863 14.12652,-5.27944 l 14.26029,-5.14695 -0.14251,-2.18882 c -0.0784,-1.20384 -0.40623,-8.61698 -0.72851,-16.47363 -0.48091,-11.72419 -0.55218,-16.76783 -0.39746,-28.13675 l 0.1885,-13.85196 1.97694,-9.09033 c 1.0873,-4.99969 2.93798,-14.38222 4.11259,-20.85006 1.17462,-6.46785 2.25572,-11.75972 2.40248,-11.75972 0.15249,0 0.18014,0.58729 0.0645,1.37076 -1.00876,6.83426 -1.32256,10.23804 -1.32361,14.35696 -0.003,6.74944 0.92502,9.89051 3.19255,10.821 1.33515,0.54787 3.42677,-0.18507 5.95524,-2.08678 1.76917,-1.33061 2.17584,-1.82484 3.26879,-3.97261 2.70535,-5.31626 5.18592,-13.79879 6.08769,-20.8173 0.6491,-5.05207 0.45552,-13.56634 -0.39603,-17.41983 -1.06088,-4.80077 -2.79862,-8.98057 -5.33897,-12.84191 -1.76874,-2.68846 -6.35354,-7.13872 -9.32802,-9.05422 l -2.52081,-1.62333 -8.3675,0 -8.3675,0 0.17269,1.51506 c 0.0949,0.83328 0.70221,7.44715 1.3494,14.69748 l 1.17672,13.18247 2.75952,11.5929 2.75956,11.59289 -0.91471,1.34136 c -0.50305,0.73773 -0.93827,1.37492 -0.96708,1.41595 -0.0288,0.0411 -4.75953,-2.17702 -10.51272,-4.92907 -14.0411,-6.7166 -14.81591,-7.23547 -21.93726,-14.69029 l -5.65078,-5.91547 -3.97429,2.90613 -3.97428,2.9061 -4.7265,15.45136 -4.72653,15.45133 -2.16087,13.41907 -2.16088,13.41906 -0.28022,11.83188 -0.28023,11.83187 1.70657,13.41908 1.70656,13.41906 4.39403,16.1606 c 2.41673,8.88833 4.85425,17.4299 5.41674,18.98127 5.46968,15.08572 15.10963,25.21668 26.86483,28.23312 3.76499,0.96611 9.2136,1.17631 13.45127,0.51895 z m 253.14648,0.20664 c 0,-0.0599 -0.2294,-0.28718 -0.50978,-0.50503 -0.46206,-0.35895 -0.47233,-0.34875 -0.11001,0.10893 0.38058,0.4807 0.61979,0.63359 0.61979,0.39606 z M 249.01148,619.24035 c 8.55461,-4.50991 15.58104,-8.21629 15.61429,-8.23641 0.0333,-0.0202 -0.12825,-1.26493 -0.35891,-2.76629 -0.23066,-1.50133 -0.42173,-2.8178 -0.42459,-2.92543 -0.003,-0.10762 -0.701,-0.45356 -1.55136,-0.76875 -12.81845,-4.75114 -25.18593,-14.19652 -35.70289,-27.26724 -2.84167,-3.5317 -6.83401,-9.22386 -8.43439,-12.0255 -0.91206,-1.5967 -1.08638,-1.7713 -1.17157,-1.17353 -0.18703,1.31215 0.53088,17.75476 0.97754,22.38913 1.92311,19.95387 6.27842,33.0172 13.12244,39.35955 1.0617,0.98386 2.03054,1.74959 2.15299,1.70157 0.12247,-0.048 7.22187,-3.77719 15.77645,-8.2871 z m 319.82484,3.57385 c 7.81285,-1.27513 12.84495,-2.71993 17.51753,-5.02964 8.33196,-4.11855 13.29541,-10.39532 14.54247,-18.39038 0.19345,-1.24033 0.94081,-3.79471 1.66079,-5.67645 l 1.30906,-3.42131 -0.84791,-0.83998 -0.84789,-0.83997 -4.34421,1.59969 -4.34422,1.59971 -12.24998,-0.73324 c -21.53158,-1.28875 -28.01618,-2.56336 -38.18373,-7.50526 -10.05055,-4.88507 -20.18891,-12.91037 -29.34972,-23.23255 -5.91644,-6.66651 -8.3432,-10.15486 -11.895,-17.09851 -2.90985,-5.68869 -3.26247,-6.24917 -3.76422,-5.98318 -1.3341,0.70731 -1.44053,4.41893 -0.28534,9.95121 0.80957,3.87707 2.6213,10.06222 3.9307,13.41907 1.12226,2.87713 3.69324,11.87835 3.45952,12.11207 -0.0748,0.0747 -0.22714,-0.009 -0.33859,-0.185 -0.6305,-0.99859 -8.9352,-11.30844 -9.03189,-11.21264 -0.0859,0.0851 4.05189,10.87194 6.56154,17.10551 0.29085,0.72238 -0.45266,0.313 -3.86568,-2.12846 -4.91355,-3.51485 -8.00605,-6.17673 -10.85408,-9.34267 -4.42545,-4.91947 -7.40938,-9.93425 -8.84638,-14.86724 -0.562,-1.92938 -0.67131,-2.98291 -0.67306,-6.48784 -0.003,-3.6038 0.0947,-4.49479 0.6958,-6.42097 0.67545,-2.16465 1.09872,-2.63001 1.70604,-1.87578 0.15977,0.19841 1.93845,4.77604 3.95263,10.17253 2.01419,5.39649 3.80347,10.13645 3.97618,10.53324 0.23115,0.53106 0.27735,-1.12552 0.17503,-6.27666 -0.10599,-5.33819 -0.0559,-6.99716 0.21145,-6.99417 0.19276,0.003 2.11979,2.73046 4.28226,6.06281 2.16249,3.33233 3.97264,5.93742 4.02258,5.78904 0.0499,-0.1484 -0.30707,-2.45459 -0.79329,-5.12491 -2.34214,-12.86233 -2.66067,-21.03885 -0.90565,-23.2491 0.53537,-0.67425 0.52324,-0.73507 -1.17162,-5.89013 -3.73336,-11.35537 -6.29865,-21.11209 -6.60881,-25.13557 -0.18681,-2.42329 -0.1636,-2.41177 -3.00279,-1.48845 -5.77134,1.87691 -10.30234,5.41129 -13.83931,10.79524 -5.29906,8.06621 -8.07986,18.20528 -8.88187,32.38413 -0.35323,6.24507 -0.14567,9.10243 1.0415,14.33907 3.16759,13.97217 9.39386,25.0962 17.38569,31.0619 2.97244,2.21884 5.68038,3.55757 8.09352,4.00127 2.8274,0.51986 2.96082,0.57737 2.76397,1.1917 -0.19165,0.59823 -0.37712,0.53053 6.6577,2.42989 2.05765,0.55555 4.74253,1.21499 5.96643,1.46542 1.22386,0.25044 5.30824,1.50072 9.07636,2.77841 3.76812,1.27768 10.0628,3.16627 13.98817,4.19685 5.57504,1.46369 7.85193,2.20939 10.4035,3.40716 9.76699,4.58484 16.57289,11.1334 18.74143,18.03277 l 0.49886,1.5872 3.31204,0.29939 c 1.82159,0.16467 3.57417,0.19868 3.8946,0.0756 0.32044,-0.1231 2.61449,-0.55546 5.09789,-0.96078 z M 436.38587,586.30262 c 7.64348,-2.24316 8.22674,-2.3675 16.92126,-3.60727 4.9527,-0.70619 9.67189,-1.29367 10.48708,-1.30541 0.8152,-0.0118 2.04796,-0.10916 2.73947,-0.21644 l 1.25727,-0.19505 -1.01462,-1.17222 c -5.76914,-6.66518 -10.10876,-17.78293 -11.56709,-29.63393 -0.19042,-1.54751 -0.39002,-2.81367 -0.44359,-2.81367 -0.0535,0 -1.9709,-0.3233 -4.26081,-0.71846 -22.33976,-3.85488 -41.17127,-2.21227 -55.06085,4.80279 -7.27215,3.67288 -12.67582,8.41762 -16.30987,14.32104 l -1.37168,2.22825 1.08037,0.20013 c 0.59422,0.1101 2.26019,0.13774 3.70215,0.0615 4.02842,-0.21315 20.61824,-0.98276 21.18708,-0.9829 0.43,-1.2e-4 0.47778,0.19094 0.32452,1.29847 -0.13379,0.96712 -0.0825,1.29862 0.20083,1.29862 0.81805,0 11.16301,6.87272 15.4778,10.28273 2.8893,2.28349 6.10455,5.33848 7.42852,7.05834 0.59986,0.7792 1.13906,1.41676 1.19824,1.41676 0.0591,0 3.66992,-1.04544 8.02392,-2.32326 z m 155.69786,0.74826 c 11.83063,-1.71556 21.10668,-6.03887 28.16842,-13.12846 l 2.33045,-2.33969 -1.7093,0.58169 c -4.77276,1.62427 -12.63475,2.25787 -16.29547,1.31329 -6.05963,-1.56357 -8.9729,-5.7012 -9.0435,-12.8443 -0.0487,-4.92137 0.67324,-7.73167 1.12873,-4.39416 1.18315,8.66915 5.8892,14.57499 12.49192,15.67668 11.4001,1.90216 30.6988,-10.93741 55.0894,-36.6514 l 5.58645,-5.88957 -3.22736,-5.72588 c -1.77506,-3.14921 -3.29527,-5.72062 -3.37824,-5.71424 -0.0829,0.007 -0.74073,0.80974 -1.46172,1.7852 -1.9104,2.58472 -8.12903,8.71801 -11.58945,11.43045 -12.59991,9.87633 -30.14346,17.35343 -48.41997,20.63674 -6.06106,1.08889 -6.97023,1.1503 -9.06954,0.61282 -7.16803,-1.83522 -12.97086,-6.55827 -15.41968,-12.55039 -0.8304,-2.03197 -1.12981,-5.75895 -0.82052,-10.21469 0.84851,-12.22486 5.83043,-21.44414 13.85596,-25.64113 l 1.88533,-0.98594 -2.42564,-1.17733 -2.42564,-1.17732 1.6022,-0.0193 c 0.8812,-0.011 4.74832,0.17197 8.59357,0.40589 3.84527,0.23393 7.43928,0.42736 7.9867,0.42984 1.53895,0.007 0.89884,0.30449 -2.54681,1.18348 -13.46625,3.43531 -21.55311,11.15779 -23.37034,22.31736 -0.52954,3.25197 -0.21334,10.07916 0.6026,13.00934 0.35356,1.26976 0.68614,2.85251 0.73907,3.51724 0.1759,2.20892 1.45066,3.80775 4.06255,5.0955 8.31919,4.10152 23.36301,1.31434 41.06187,-7.60762 9.84253,-4.96161 21.13257,-12.24935 32.20694,-20.78966 3.25914,-2.51337 3.69999,-2.96045 4.15259,-4.2113 2.04107,-5.64077 1.79391,-12.16296 -0.65763,-17.353 -2.83606,-6.00418 -9.74206,-12.51293 -17.23814,-16.24662 l -2.26267,-1.12701 -7.0747,0.53772 c -3.89109,0.29574 -7.13151,0.48747 -7.20093,0.42606 -0.38584,-0.34127 1.12559,-0.74596 7.84588,-2.10065 l 7.42836,-1.49742 7.57399,-3.344 c 4.1657,-1.83919 12.09655,-5.44774 17.62412,-8.01898 l 10.05013,-4.675 8.77524,-6.46575 c 4.82638,-3.55617 10.40423,-7.65291 12.39525,-9.10393 l 3.62003,-2.63818 2.97824,-4.92575 c 2.42558,-4.01168 3.52361,-5.50356 5.91702,-8.03936 10.74232,-11.38143 16.82736,-22.04507 16.85105,-29.53038 0.0248,-7.83599 -6.61534,-13.24018 -16.89733,-13.75216 -6.31711,-0.31458 -11.60236,1.39738 -13.41733,4.34602 -0.30619,0.49746 -0.55721,1.19598 -0.55782,1.55223 -0.003,0.99287 -23.68222,16.50979 -41.03082,26.8859 -7.63498,4.56645 -16.70018,9.99288 -20.1449,12.05875 -6.03639,3.62021 -6.65326,3.91422 -17.0415,8.12215 -11.51441,4.66412 -12.14189,4.93941 -12.27359,5.38457 -0.047,0.15872 1.51559,1.32747 3.47233,2.59724 l 3.55772,2.30866 2.13621,5.19447 c 1.17491,2.85698 3.17401,7.70325 4.44245,10.7695 l 2.30623,5.57503 0,3.28002 c 0,13.81925 -8.83482,21.61152 -26.85273,23.68397 -5.02716,0.57823 -17.11567,0.42076 -22.96091,-0.29913 -6.84489,-0.84294 -18.29765,-2.90791 -22.62957,-4.08016 -0.58519,-0.15838 -0.52404,0.0773 0.76788,2.95877 2.92293,6.51942 5.04193,13.0558 6.19634,19.11374 0.50805,2.66596 0.64129,4.44488 0.6509,8.69086 0.0134,5.94113 -0.35789,8.22971 -1.93815,11.94477 -0.47996,1.12829 -0.94098,2.34366 -1.02452,2.70078 -0.0836,0.35713 -0.30046,0.64922 -0.48207,0.64908 -0.24006,-1.4e-4 -0.33192,-2.97281 -0.33657,-10.89398 -0.005,-8.85413 -0.10116,-11.5151 -0.51249,-14.21244 -2.19516,-14.39552 -8.40416,-24.42926 -18.48259,-29.86787 -0.11203,-0.0605 1.71913,-6.31529 2.00929,-6.86322 0.25825,-0.48764 0.3143,-0.4843 1.09285,0.0648 1.61856,1.1417 11.33793,5.69897 16.48196,7.72811 9.42334,3.71717 18.15478,6.23635 26.36335,7.60633 5.29121,0.88309 14.60656,0.96924 18.29301,0.16917 9.82006,-2.13124 15.94796,-6.99154 19.25265,-15.27003 1.33188,-3.33651 1.33538,-3.4866 0.16906,-7.30612 -3.2724,-10.71674 -7.88066,-19.90338 -11.25039,-22.42787 -0.81478,-0.61041 -1.50113,-0.78318 -4.17927,-1.0521 -1.76242,-0.17696 -15.24549,-1.5527 -29.96239,-3.05716 -14.71686,-1.5045 -26.79364,-2.73541 -26.83724,-2.73541 -0.17275,0 -1.34824,-2.95039 -1.22438,-3.07306 0.12818,-0.12697 30.50675,3.14331 33.65681,3.62318 1.79597,0.27358 0.83882,0.90694 9.76312,-6.46011 l 4.88695,-4.03424 -0.18746,-1.73741 c -0.10309,-0.95558 -0.25157,-1.9621 -0.32993,-2.23668 -0.14451,-0.50643 -0.0959,-0.54577 5.71924,-4.62805 1.20165,-0.84355 6.53614,-5.18648 11.85443,-9.65097 5.31829,-4.46446 9.85264,-8.22514 10.07633,-8.35705 0.51637,-0.30454 4.5449,-5.10294 12.43648,-14.81325 4.19146,-5.15739 7.69487,-9.85557 10.75975,-14.4291 l 4.54461,-6.78168 4.20133,-9.78984 4.20133,-9.78986 -0.33792,-4.92783 c -1.06135,-15.47738 -5.24762,-24.23963 -12.64404,-26.46521 -6.23282,-1.87546 -15.58399,1.39792 -24.61948,8.61805 -2.64777,2.1158 -4.40154,4.39294 -16.30659,21.17292 l -10.7696,15.17958 -12.91236,14.83298 c -16.79182,19.28946 -20.66208,23.14382 -35.01246,34.86858 l -10.68639,8.73113 -10.28777,6.43314 c -5.65829,3.53825 -11.18511,7.06198 -12.2818,7.83052 -2.18815,1.53342 -6.12806,5.22935 -7.92765,7.43671 -6.06413,7.43812 -9.93587,17.78209 -10.90846,29.14354 -0.17483,2.04245 -0.27878,3.74819 -0.23097,3.79053 0.0479,0.0423 3.3625,-5.03763 7.36601,-11.28885 4.00346,-6.25118 7.43679,-11.3658 7.62954,-11.3658 0.38795,0 -0.85398,2.64093 -8.43544,17.93738 -5.18036,10.45191 -5.6861,11.74837 -6.51155,16.69249 -3.3333,19.96517 6.68854,46.84677 26.76577,71.79375 3.69367,4.58955 5.20905,6.20512 6.62734,7.06558 0.56077,0.34022 3.43324,2.16637 6.38324,4.05816 5.07755,3.25611 6.05222,3.74497 18.27043,9.16356 14.9255,6.61927 14.46687,6.4861 26.17955,7.60227 2.39078,0.22782 12.04901,-0.12318 14.94513,-0.54314 z M 347.87934,570.32293 c 3.84526,-0.38379 7.97216,-0.78385 9.17085,-0.889 1.19871,-0.1051 2.60273,-0.3664 3.12006,-0.58052 0.51733,-0.21413 2.22388,-0.7313 3.79233,-1.1493 7.02783,-1.8729 6.65546,-1.70002 7.65213,-3.55252 2.53383,-4.70943 8.05813,-10.44611 13.54136,-14.06199 13.31688,-8.78165 30.71555,-11.71283 52.00911,-8.76211 4.46794,0.61915 10.87959,1.84611 14.63822,2.80124 1.2417,0.31554 2.25763,0.53413 2.25763,0.48577 0,-0.54848 1.95501,-10.2178 2.50841,-12.40644 2.20959,-8.73864 5.14839,-16.09669 8.90188,-22.28801 1.23719,-2.04082 1.46369,-2.65181 1.60593,-4.33283 0.55664,-6.57736 -2.93832,-17.01876 -9.26213,-27.67113 -1.35058,-2.27507 -6.07566,-9.62896 -6.18689,-9.62899 -0.0239,-2e-5 -0.0489,2.04531 -0.0557,4.54517 -0.0107,3.97519 -0.0958,4.7804 -0.67809,6.42096 -1.72127,4.84985 -5.27613,7.95445 -10.81619,9.44622 -1.51795,0.40874 -2.96243,0.5034 -7.2827,0.47722 -4.97576,-0.0301 -6.08787,-0.14368 -14.4967,-1.47999 l -9.1075,-1.44733 -8.29473,-3.85878 c -4.56211,-2.12235 -8.29627,-4.00606 -8.29814,-4.18607 -0.003,-0.28253 4.0139,0.47673 6.55103,1.23827 0.32043,0.0962 -0.4661,-0.51515 -1.74785,-1.35848 -2.88002,-1.89491 -9.83691,-8.72403 -13.36131,-13.11588 -1.40106,-1.74591 -3.68714,-4.76484 -5.08015,-6.70872 -1.39299,-1.94387 -2.63102,-3.53467 -2.7512,-3.53514 -0.12015,0 -0.22048,0.42125 -0.22292,0.93708 -0.004,0.93974 -0.41707,1.91516 -0.69405,1.64077 -0.19109,-0.18935 -2.55129,-7.99405 -6.16967,-20.40181 l -2.88331,-9.88718 -1.96649,-1.29539 -1.9665,-1.29541 -4.15464,0.0101 -4.15463,0.0101 -5.96297,1.67159 c -5.70236,1.59851 -5.92098,1.68605 -5.00224,2.00334 1.6286,0.5624 4.85771,2.86524 6.53619,4.66123 5.67238,6.06952 8.99172,15.99602 9.87998,29.54626 0.26339,4.01842 0.25797,5.88581 -0.0248,8.51317 -0.82634,7.67871 -3.13733,16.41929 -5.81484,21.99253 -3.97585,8.27567 -10.74742,14.527 -17.21911,15.89618 -0.89024,0.18832 -1.72343,0.43224 -1.85159,0.54201 -0.12814,0.10971 -0.4228,2.58904 -0.65479,5.50952 -0.232,2.92048 -0.70234,8.55653 -1.04521,12.52453 -0.71258,8.24696 -0.71068,8.97321 0.0459,17.60352 0.71842,8.1942 0.74382,8.32917 3.4076,18.11586 l 2.26026,8.30407 1.16831,-0.15243 c 0.64258,-0.0838 4.31445,-0.46643 8.15972,-0.85025 z m 129.05251,-75.91914 c 1.00286,-1.26976 2.15981,-2.61758 2.57103,-2.99514 l 0.74764,-0.68648 -0.75271,-1.47787 c -3.20445,-6.29171 -10.60982,-17.78495 -15.2696,-23.69873 -2.66504,-3.38218 -8.94678,-10.04406 -10.51221,-11.14831 -0.61071,-0.43079 -1.97028,-0.67946 -6.11906,-1.11912 -2.93361,-0.31088 -5.51216,-0.56734 -5.73005,-0.56986 -0.2179,-0.003 0.37199,0.55795 1.31088,1.24553 3.86338,2.82925 9.69342,9.82313 15.31602,18.37345 4.40361,6.69663 8.025,12.84196 14.42871,24.48502 l 1.00722,1.8313 0.58941,-0.96556 c 0.32413,-0.53105 1.40987,-2.00446 2.41272,-3.27423 z m 5.19833,-5.23906 c 1.31467,-1.09944 4.07762,-2.32854 5.74529,-2.55575 0.7886,-0.10739 1.43768,-0.21562 1.4424,-0.24041 0.0959,-0.50345 1.94752,-20.26701 1.90341,-20.31608 -0.0348,-0.0386 -0.38796,0.4212 -0.78492,1.02183 -0.39694,0.60063 -2.28342,2.94586 -4.19213,5.21168 -3.19672,3.7947 -3.65494,4.21937 -5.81036,5.38479 -3.84449,2.07869 -3.66679,1.26497 -1.56062,7.14564 1.00739,2.8129 1.94625,5.11434 2.08631,5.11434 0.14006,0 0.66682,-0.34471 1.17062,-0.76604 z m -44.77996,-5.74434 c 3.93204,-1.96401 7.26379,-5.34862 8.57898,-8.71507 0.4901,-1.25455 0.6509,-2.28696 0.66252,-4.25384 0.019,-3.22321 -0.79813,-5.68989 -3.068,-9.26064 -2.33221,-3.66883 -8.3977,-10.12626 -8.3977,-8.94032 0,0.99282 -1.60484,3.54279 -3.20733,5.09615 -2.0237,1.9617 -4.8685,3.72602 -6.00696,3.72551 -1.25492,0 -6.26606,-1.26853 -9.72071,-2.45965 -8.55843,-2.95077 -17.89391,-8.98488 -24.1782,-15.62788 -2.33835,-2.47182 -5.53519,-6.34598 -5.53519,-6.70797 0,-0.12571 -0.79724,-0.3111 -1.77163,-0.41199 -3.40976,-0.35308 -7.30547,-2.36187 -10.51166,-5.4203 -1.88418,-1.79734 -2.15251,-1.95046 -4.3947,-2.50829 -1.31342,-0.32676 -2.41736,-0.56501 -2.45322,-0.52949 -0.1266,0.12542 7.24974,22.27075 7.50813,22.5411 0.16448,0.17205 0.39226,0.14519 0.61164,-0.0721 0.57379,-0.56841 0.73881,-0.43253 1.94517,1.60164 4.53002,7.63851 11.75928,15.80945 18.66585,21.09723 7.82746,5.9929 16.79357,9.97924 26.08562,11.59777 2.53038,0.44076 11.0516,0.78888 12.23492,0.49982 0.48067,-0.11738 1.80929,-0.68064 2.95247,-1.25163 z m -112.21788,-9.10254 -2.51216,-6.7522 -1.7639,-15.00627 c -0.97011,-8.25346 -1.89568,-15.09216 -2.05681,-15.19712 -0.16112,-0.10498 -0.86115,-0.27522 -1.55563,-0.37838 -0.69449,-0.10322 -1.25857,-0.27705 -1.2535,-0.38635 0.005,-0.10926 0.59496,-0.55088 1.31088,-0.98125 1.55745,-0.93623 1.45873,0.89545 0.86804,-16.10576 -0.39882,-11.48007 -0.50242,-12.81487 -1.60692,-20.71085 l -1.18057,-8.43994 -4.20512,-15.40639 -4.20511,-15.4064 -0.77713,-10.63306 c -0.4274,-5.84817 -0.83759,-11.67468 -0.91154,-12.94779 l -0.13443,-2.31472 -7.03705,-1.83939 c -3.87038,-1.01165 -7.14705,-1.93599 -7.28145,-2.05404 -0.13439,-0.11809 2.82251,-0.1456 6.57092,-0.0611 l 6.81523,0.15358 0.38711,-3.22479 c 0.21291,-1.77365 0.31424,-3.29702 0.22512,-3.38527 -0.0891,-0.0883 -4.1855,-1.24181 -9.10319,-2.56342 -12.48695,-3.35583 -12.48601,-3.55704 0.0107,-2.16396 4.27125,0.47615 8.09009,0.86574 8.4863,0.86574 0.71964,0 0.71906,-0.003 -0.57778,-2.38081 -3.88358,-7.12229 -7.54085,-17.98308 -9.20754,-27.34315 -1.99017,-11.17664 -2.2432,-24.01467 -0.70753,-35.90067 0.39612,-3.06615 1.62564,-10.23545 2.03417,-11.86123 0.1358,-0.5405 -0.3893,-0.6899 -7.95206,-2.2625 -4.90796,-1.02052 -10.44988,-2.39944 -14.06938,-3.50063 -4.83532,-1.4711 -13.22321,-3.61424 -14.14551,-3.61424 -0.11077,0 -0.12072,0.39965 -0.0221,0.88811 0.54091,2.67923 2.39782,23.56537 2.11962,23.84097 -0.16634,0.1648 -0.35445,-0.45249 -3.97392,-13.04151 -1.46028,-5.07904 -2.90792,-10.08665 -3.21696,-11.12798 l -0.5619,-1.89336 -3.52066,-0.79895 c -1.93638,-0.43943 -3.68224,-0.73756 -3.8797,-0.66249 -0.19745,0.0751 -3.22436,6.53842 -6.72644,14.36301 l -6.36747,14.22652 0.78919,5.28924 c 0.43405,2.90907 0.71237,5.41235 0.6185,5.56283 -0.21646,0.34695 -2.81457,-0.64093 -3.11711,-1.1852 -0.40424,-0.72722 -3.15095,-18.83435 -3.14664,-20.7435 0.002,-1.03168 0.39154,-7.71957 0.86491,-14.86198 l 0.86065,-12.9862 2.05972,-11.83188 c 1.22161,-7.01735 2.42334,-13.00614 2.95332,-14.71769 1.14222,-3.68878 5.11302,-15.00743 5.68902,-16.2164 0.44625,-0.93668 2.4465,-7.95756 2.30658,-8.09618 -0.042,-0.0417 -3.11115,3.02755 -6.82022,6.82049 l -6.74375,6.89625 -6.36299,11.79102 -6.363,11.79102 -3.82626,11.83925 c -3.69388,11.42966 -3.94828,12.38313 -7.35336,27.5596 -3.03239,13.51537 -3.81006,17.53879 -5.54438,28.68485 -1.1095,7.13046 -2.28481,15.70135 -2.61182,19.04641 -0.327,3.34508 -1.11215,10.23751 -1.74479,15.31657 l -1.15027,9.23463 1.04313,18.61355 1.04313,18.61354 5.98525,13.41908 c 5.79587,12.99448 6.27594,13.94412 15.17246,30.01254 5.05295,9.12641 9.74224,17.48044 10.42065,18.56452 l 1.23345,1.97106 0.36457,-1.68247 c 0.20051,-0.92536 1.13517,-4.92902 2.07705,-8.89701 0.94187,-3.96801 2.60948,-12.14932 3.7058,-18.18069 l 1.9933,-10.96612 -0.98418,-13.56337 c -1.31267,-18.09087 -1.66904,-29.32967 -1.45951,-46.02885 0.43161,-34.40044 2.59137,-51.34369 6.7981,-53.33098 0.52246,-0.24682 1.03211,-0.36732 1.13258,-0.26779 0.10051,0.0994 -0.0861,0.73963 -0.41461,1.42248 -3.1628,6.57453 -4.64518,31.04103 -4.33272,71.51129 0.14323,18.55165 0.23333,21.55086 0.89292,29.72397 0.67333,8.34311 0.86542,9.72293 2.33671,16.78594 1.44276,6.92587 3.39618,13.66973 4.62535,15.96813 0.16976,0.31744 6.8307,9.53765 14.80208,20.48934 l 14.4934,19.91218 8.02514,8.11723 c 13.51924,13.67444 26.81946,24.16931 36.73861,28.98958 2.85059,1.38525 6.70902,2.71201 7.06971,2.43097 0.0432,-0.0336 -1.0521,-3.09952 -2.43378,-6.81319 z m 156.60294,-0.11481 c 0.19947,-0.23808 0.29711,-0.43287 0.217,-0.43287 -0.0801,0 -0.30884,0.19479 -0.50831,0.43287 -0.19945,0.23808 -0.2971,0.43287 -0.21699,0.43287 0.0801,0 0.30885,-0.19479 0.5083,-0.43287 z m -52.30913,-27.15405 c 2.23817,-0.235 22.20713,-0.10937 24.48922,0.15404 2.75597,0.31811 10.20386,-0.15526 13.09203,-0.8321 1.29102,-0.30254 9.72482,-1.74686 18.74175,-3.2096 l 16.39449,-2.65955 6.16236,-6.16455 6.16235,-6.16457 8.4081,-4.3868 8.40813,-4.38679 12.72888,-10.31309 c 7.00085,-5.6722 12.73783,-10.48311 12.74885,-10.69087 0.011,-0.20777 0.44058,-1.25693 0.95465,-2.33146 1.94703,-4.06979 2.31015,-8.81668 0.94652,-12.3732 -1.29641,-3.3812 -5.3546,-8.32565 -6.83496,-8.32764 -0.63763,0 -13.00663,-4.44749 -16.68638,-5.9987 -3.28409,-1.38442 -13.92717,-9.04792 -20.82707,-14.99643 -11.49682,-9.91154 -17.35047,-14.54302 -21.92223,-17.34504 -2.38966,-1.4646 -4.48707,-2.60867 -4.66093,-2.54235 -0.17388,0.0662 -4.11518,2.29322 -8.75848,4.94875 l -8.44234,4.82818 -0.75137,-0.8916 c -0.41324,-0.49036 -3.22221,-4.49723 -6.24214,-8.90412 -3.01993,-4.40691 -5.51222,-8.04359 -5.53841,-8.08151 -0.0262,-0.0379 -1.33384,-0.20111 -2.90586,-0.3626 l -2.85819,-0.2936 -21.15361,5.36433 -21.1536,5.36434 -20.97418,-0.13727 c -12.5549,-0.0822 -24.77453,-0.31767 -30.44165,-0.58669 l -9.46752,-0.44938 -12.36868,-2.32286 c -6.80277,-1.27758 -12.57067,-2.32273 -12.81755,-2.32262 -1.12908,0 -4.02616,1.72021 -5.34366,3.17187 -1.79332,1.97594 -3.62705,5.17256 -3.1387,5.47154 0.20936,0.12819 -0.36448,0.4149 -1.4148,0.70685 -1.27939,0.35563 -1.76544,0.6264 -1.76121,0.98124 0.003,0.26957 1.03127,10.91167 2.28461,23.64913 l 2.27878,23.15907 1.84101,1.94758 c 4.51769,4.77929 15.04407,15.14838 18.49709,18.2207 11.19344,9.95936 19.89346,15.0245 22.68937,13.20968 0.68936,-0.44744 0.83708,-0.3929 4.74145,1.75075 2.21645,1.21693 4.90935,2.84255 5.98419,3.61255 1.33224,0.95432 3.74308,2.13682 7.57401,3.7149 3.09085,1.27322 8.56921,3.72186 12.17416,5.44142 6.34875,3.02837 6.9429,3.24625 18.935,6.94397 6.80932,2.09964 13.10157,4.04648 13.98277,4.32631 1.55958,0.49527 2.41267,0.50998 6.24375,0.10783 z m 39.78289,-55.5411 c -18.73629,-2.04628 -33.02717,-11.50246 -40.90737,-27.06815 -1.3775,-2.72095 -3.51856,-8.08339 -3.30521,-8.27812 0.12611,-0.11509 4.20602,-0.71015 4.86901,-0.71015 0.32979,0 0.59962,0.12987 0.59962,0.28859 0,0.15872 -0.33654,0.28859 -0.7479,0.28859 -0.63906,0 -0.71956,0.0945 -0.55327,0.64929 0.64617,2.15572 4.35709,7.3897 8.09681,11.41999 10.31969,11.12155 22.29793,18.23499 33.40485,19.838 6.42017,0.92659 12.08899,-0.0228 18.26183,-3.05854 1.95293,-0.96043 3.97087,-2.13497 4.48431,-2.61008 0.51342,-0.47515 1.01299,-0.82682 1.11014,-0.78151 0.0972,0.0453 1.59919,1.53142 3.33792,3.30248 l 3.16128,3.22009 -2.44924,0.74007 c -5.98477,1.80839 -12.75437,2.75753 -20.76919,2.91199 -3.36461,0.0648 -7.23172,-0.003 -8.59359,-0.15254 z m 141.97043,48.47366 c 1.62538,-0.80708 8.39538,-3.99949 15.04449,-7.09423 6.64909,-3.0948 12.17564,-5.71349 12.28122,-5.81931 0.1829,-0.18338 4.03609,-40.28999 4.03332,-41.9816 0,-0.63559 -2.2183,2.25969 -10.27669,13.41907 -5.65146,7.82626 -10.84892,15.00873 -11.54989,15.96105 -1.06147,1.44198 -2.99278,3.00691 -11.55158,9.36002 -10.1166,7.50943 -10.26942,7.63802 -9.78841,8.237 0.7521,0.9365 8.62528,9.38541 8.74588,9.38541 0.0586,0 1.43632,-0.66033 3.06166,-1.46741 z m -41.2068,-56.10473 c 16.17325,-17.95792 29.69273,-34.37198 35.65369,-43.28733 1.98191,-2.96419 3.99304,-6.89143 3.99304,-7.7974 0,-0.40771 1.39191,-1.96825 4.15115,-4.65415 7.96593,-7.75411 14.64002,-12.27498 19.46137,-13.18269 0.95219,-0.17926 1.72778,-0.45852 1.72349,-0.62062 -0.021,-0.79957 -3.47151,-15.54139 -3.68179,-15.73018 -0.1337,-0.12005 -1.81615,-0.74082 -3.73878,-1.37948 -1.92263,-0.63867 -9.28835,-3.11415 -16.36824,-5.5011 l -12.87257,-4.3399 -1.6465,4.89378 c -1.37652,4.09136 -1.83308,6.01093 -2.78456,11.70743 -1.32768,7.94894 -1.10749,7.03889 -4.08249,16.87426 -2.13357,7.0537 -2.62233,8.31797 -5.94729,15.38423 -4.88728,10.38651 -4.70014,10.0405 -8.43825,15.60053 -6.95008,10.33744 -14.32667,18.17032 -20.80736,22.0944 l -1.6976,1.02793 1.94698,0.49685 c 6.65901,1.69934 9.48604,8.01727 6.84215,15.29119 -0.41347,1.13756 -0.81653,2.32802 -0.89572,2.64547 -0.18188,0.72927 1.88241,-1.41006 9.18928,-9.52322 z m -16.8061,-15.06056 c 16.4702,-14.68363 28.52559,-33.00644 32.82396,-49.88861 1.77858,-6.98563 1.93862,-9.14535 1.55099,-20.92992 -0.36884,-11.21295 -0.68394,-14.12679 -2.4158,-22.33923 -1.45233,-6.88701 -5.33926,-19.69979 -7.47076,-24.62656 l -0.51636,-1.19354 -5.73545,10.6014 c -3.15449,5.83076 -6.7776,12.9068 -8.05132,15.72455 -1.97556,4.37039 -3.01363,6.17258 -7.06454,12.26474 -11.40423,17.151 -23.33412,34.74559 -23.46862,34.61235 -0.0804,-0.0796 -0.90684,-2.39725 -1.83664,-5.1503 -3.18806,-9.43955 -7.63214,-19.68464 -14.03128,-32.34665 l -3.60858,-7.14037 0,6.85178 c 0,3.76849 -0.17239,8.41014 -0.38312,10.31476 -1.27342,11.51031 -3.93772,25.38861 -7.81087,40.68672 l -1.31428,5.19113 0.70768,0.58052 c 0.3892,0.31928 2.62814,2.2248 4.97535,4.23442 15.13837,12.961 29.18316,22.65906 36.54076,25.23175 1.07255,0.37501 2.25958,0.68461 2.63781,0.68795 0.47247,0.004 1.8718,-1.04954 4.47107,-3.36689 z m -73.62569,-30.45255 c 7.55363,-4.35784 8.17688,-4.77831 8.55659,-5.77273 0.34934,-0.91493 0.35077,-1.31375 0.01,-2.7137 l -0.39997,-1.64116 -6.98785,-2.5529 -6.98785,-2.55295 -6.4245,0 -6.42447,0 -1.27444,1.28642 -1.27444,1.2864 3.42929,4.99025 c 1.88614,2.74466 4.62808,6.76267 6.09321,8.92896 2.08396,3.08126 2.75904,3.88461 3.10086,3.69016 0.24032,-0.1367 4.10311,-2.36362 8.58399,-4.94875 z m 24.44059,-10.68932 c 1.26037,-6.70534 3.11726,-16.477 4.12643,-21.71476 1.99691,-10.3642 1.98442,-10.24785 2.62687,-24.46343 l 0.44045,-9.74573 -3.28612,-6.05132 c -1.80738,-3.32821 -3.3517,-6.04851 -3.43181,-6.04511 -0.1897,0.008 -7.65633,14.14856 -7.52692,14.2547 0.0542,0.0445 1.04026,0.36009 2.19118,0.70134 1.15096,0.34127 2.65848,1.04576 3.35004,1.56553 1.48081,1.11286 3.02086,3.27143 3.44355,4.82651 0.37638,1.38467 -0.1164,10.52389 -0.71945,13.34247 -1.07876,5.04217 -3.95336,7.96009 -7.56194,7.67575 -0.73318,-0.0577 -1.33308,-0.0859 -1.33308,-0.0622 0,0.15271 -4.79509,17.65532 -5.27398,19.25053 -0.56965,1.89761 -0.62293,1.96727 -1.37348,1.7958 -1.27611,-0.2915 -2.60946,-2.05766 -3.3762,-4.47217 -1.36326,-4.29294 -2.21126,-11.62038 -2.21126,-19.10759 0,-3.27126 -0.0756,-3.99826 -0.41582,-3.99826 -0.51069,0 -1.5367,1.25634 -2.08229,2.54974 -0.53309,1.26373 -0.98434,8.00847 -1.23326,18.43377 l -0.20129,8.43017 4.11831,1.47931 4.11831,1.47933 0.3726,1.77807 c 0.20494,0.97795 0.38357,1.94022 0.39696,2.13839 0.0236,0.35062 11.67825,8.07539 12.25929,8.12564 0.16022,0.0139 1.32253,-5.46104 2.58291,-12.1664 z m -102.93846,5.43586 13.54581,-0.971 15.14801,-4.25401 15.14801,-4.25402 7.86531,-0.55206 c 5.53186,-0.38826 9.93951,-0.52126 14.85671,-0.44834 6.3625,0.0944 7.13549,0.1604 8.59358,0.7343 0.8812,0.34681 1.61492,0.63066 1.63047,0.63075 0.0154,9e-5 0.11878,-2.23997 0.22935,-4.9779 0.25186,-6.23663 0.91876,-12.77066 1.68626,-16.52132 0.58949,-2.88066 0.6786,-3.45734 1.5821,-10.23712 0.26384,-1.97984 0.70149,-4.39207 0.97259,-5.3605 l 0.49286,-1.76078 -2.20441,1.57922 c -2.61895,1.87618 -6.80382,3.89833 -9.08741,4.39108 -2.43302,0.525 -6.20939,0.24596 -7.82217,-0.57794 -2.8304,-1.44597 -3.29066,-2.0354 -6.74319,-8.63547 -5.82144,-11.12866 -7.50803,-14.56972 -8.14882,-16.6256 -1.97717,-6.34353 -10.44855,-19.62285 -24.39296,-38.23714 -4.56968,-6.10008 -11.0359,-14.3979 -11.58143,-14.86199 -1.81604,-1.54492 -7.70261,-5.74249 -10.35124,-7.38119 -23.05329,-14.26297 -46.80586,-13.95492 -69.16055,0.89692 -8.50441,5.65011 -17.28619,14.46302 -21.98967,22.06772 -3.50693,5.67005 -6.86595,14.28426 -8.27089,21.21079 -1.48728,7.33232 -1.74991,10.23461 -1.74971,19.335 2.6e-4,13.70835 1.21539,21.67063 5.94555,38.9586 0.72058,2.63363 1.38203,4.17561 2.75068,6.4125 6.02795,9.85181 18.57868,16.24382 36.41057,18.54371 3.29119,0.4245 13.87849,1.09554 14.0833,0.89267 0.0527,-0.0523 -0.44203,-1.63675 -1.09963,-3.52093 -5.14907,-14.75353 -6.75866,-32.73742 -4.36588,-48.77986 0.68864,-4.61696 0.82789,-5.24047 5.22317,-23.38917 3.03462,-12.53042 3.77981,-15.20439 5.51081,-19.77455 1.38643,-3.66032 2.06856,-5.90328 2.21922,-7.29689 0.74913,-6.92982 5.34281,-10.07141 12.88405,-8.81132 1.68717,0.28192 2.2098,0.50657 2.93402,1.26116 2.2343,2.32797 3.9873,6.04815 5.1474,10.9237 1.29933,5.46056 1.4763,7.77857 1.46145,19.14124 -0.0146,11.20455 -0.37172,16.17731 -1.90619,26.54956 -0.36596,2.47358 -0.52825,4.60208 -0.41854,5.48935 0.23194,1.87595 -0.28907,8.21582 -1.0273,12.50055 -1.44404,8.38135 -4.50082,19.82221 -8.24133,30.84562 l -1.88264,5.54819 4.70582,0.0869 c 2.58819,0.0477 4.96799,0.11244 5.28843,0.14373 0.32044,0.0314 6.67823,-0.38007 14.12843,-0.91409 z m -26.80329,-3.41474 c 7.2642,-19.49831 11.79057,-37.86308 10.95198,-44.43522 l -0.2109,-1.65294 -0.7392,0.4798 c -0.48098,0.31222 -1.57137,0.52307 -3.12184,0.60368 l -2.38263,0.12389 -0.0538,1.80122 c -0.10127,3.38452 -2.22192,8.53435 -5.67616,13.78407 -1.86434,2.83335 -3.3308,4.54958 -3.88753,4.54958 -0.22104,0 -0.7336,-0.64848 -1.13905,-1.44106 -1.85985,-3.63594 -2.75761,-11.35046 -2.20248,-18.92629 0.77718,-10.60626 5.19233,-26.84286 7.65417,-28.14807 0.80656,-0.42765 2.42843,0.19664 3.16192,1.21708 l 0.61334,0.85332 1.19728,-1.18607 c 1.81118,-1.79424 3.21566,-2.41669 5.45112,-2.4159 1.33868,5.7e-4 2.25248,0.17811 3.11863,0.60625 l 1.22509,0.60558 0.20027,-1.32297 c 0.25539,-1.68709 -0.32497,-10.70375 -0.89311,-13.87575 -1.36709,-7.63255 -3.89516,-12.47872 -7.64558,-14.65604 l -1.30547,-0.7579 -1.56776,0.48957 c -4.58892,1.43299 -8.86895,9.16698 -12.15464,21.96327 -0.79533,3.09743 -1.13713,5.25222 -1.46476,9.23463 -0.38855,4.72301 -0.51818,5.41712 -1.42805,7.64743 -3.23589,7.93205 -4.525,17.2994 -4.20959,30.58971 0.2486,10.47698 1.40981,20.52566 3.64207,31.51687 l 1.07178,5.27736 4.66093,0.76745 c 2.5635,0.42211 4.87267,0.77924 5.13148,0.79361 0.3465,0.0193 0.87426,-1.05757 2.00258,-4.08616 z m 166.07826,-22.00439 c 6.09722,-8.42045 6.97322,-9.80224 14.91032,-23.51945 l 8.43253,-14.5734 4.87535,-13.13049 c 4.06992,-10.96126 5.12896,-14.15227 6.4104,-19.31541 l 1.53503,-6.18492 -0.33777,-7.66702 c -1.18642,-26.9289 -4.46328,-44.24893 -10.32279,-54.56163 -0.22547,-0.3968 -1.08367,-2.112 -1.90714,-3.81155 -1.81746,-3.75113 -4.1528,-6.73544 -7.12306,-9.10254 -5.24149,-4.17713 -11.86592,-6.74693 -20.75757,-8.05251 -4.71869,-0.69284 -15.99157,-0.68675 -22.10849,0.012 -7.12495,0.81384 -16.97995,2.65654 -21.81528,4.07905 -3.40867,1.00279 -2.9406,0.27258 1.08841,-1.69796 20.12395,-9.84236 42.10367,-10.54682 60.12086,-1.92692 4.36309,2.08742 6.33266,3.36042 8.88266,5.74119 2.48007,2.31553 4.41056,4.8991 6.33838,8.48262 0.83251,1.54753 1.57488,2.81368 1.64969,2.81368 0.0749,0 1.47235,-0.5728 3.10559,-1.27286 16.95099,-7.2658 41.14138,-11.71096 63.74077,-11.71286 5.36715,-5.9e-4 5.76137,-0.0374 6.49343,-0.60781 0.6493,-0.50594 0.91115,-0.55589 1.56866,-0.29926 0.4341,0.16944 3.47659,0.63993 6.76108,1.04554 3.28449,0.40561 6.29953,0.82253 6.70009,0.92647 0.67938,0.17632 0.69989,0.15174 0.3056,-0.36607 -0.23245,-0.30529 -0.57282,-0.68492 -0.75636,-0.84364 -0.18352,-0.15872 -1.92927,-2.8209 -3.87945,-5.91594 l -3.54583,-5.62735 -8.76832,-9.23464 C 629.29877,118.08047 625.12446,114.37784 615.84064,108.23955 599.87437,97.68296 579.23303,89.090346 555.43616,83.094233 l -6.55443,-1.65151 -9.64022,0.04507 -9.64022,0.04507 -3.61429,1.05973 c -25.83221,7.57416 -43.83712,24.493219 -50.51166,47.465329 -0.83559,2.87588 -1.23826,4.93498 -2.07606,10.61634 -0.23537,1.59604 -1.0569,1.21706 -2.25405,-1.03979 -1.41558,-2.66864 -1.92668,-5.01786 -1.93187,-8.87929 -0.014,-10.3457 6.87582,-21.22137 21.02668,-33.19138 0.91247,-0.771836 5.43752,-4.649896 10.05572,-8.617896 4.61816,-3.968011 9.18068,-7.843784 10.13893,-8.612851 0.97076,-0.779092 4.88463,-3.038883 8.83852,-5.10316 6.42872,-3.35639 7.30558,-3.904937 9.32184,-5.831578 2.15729,-2.061409 16.38065,-13.145017 40.38693,-31.471606 6.40876,-4.892515 11.69104,-9.063994 11.73844,-9.269958 0.11639,-0.506109 -1.6793,-2.0284 -3.42848,-2.90649 -4.76385,-2.391441 -13.66957,-4.636268 -25.78844,-6.500388 -10.89497,-1.675857 -24.5557,-2.904742 -26.03953,-2.342445 -0.41844,0.158559 -3.64472,0.348218 -7.16956,0.421459 -7.10153,0.147567 -11.20308,0.604742 -18.78935,2.094331 -12.84161,2.521489 -27.19711,7.316799 -36.41348,12.163537 -13.94386,7.332856 -24.46251,17.269842 -31.84939,30.088133 -3.82903,6.644482 -5.95902,12.462484 -7.73524,21.12878 -1.13747,5.549675 -1.1412,5.590337 -1.34814,14.702278 l -0.20757,9.137214 7.47106,12.54529 7.47103,12.54527 -0.81082,1.32205 c -0.44597,0.72712 -0.92068,1.29021 -1.05492,1.25132 -0.13426,-0.0389 -2.10059,-3.21953 -4.36962,-7.06809 l -4.12553,-6.99739 -2.33046,0.0799 c -2.30301,0.0789 -2.33154,0.0893 -2.42262,0.87348 -0.13233,1.13922 -0.50327,0.98805 -1.58062,-0.64412 l -0.949,-1.43772 -5.15442,-0.005 -5.15443,-0.005 -13.48926,4.21909 c -7.4191,2.32049 -13.58405,4.30385 -13.69984,4.40746 -0.11583,0.10355 3.3154,2.78265 7.62493,5.95343 4.30952,3.1708 7.70794,5.81044 7.55201,5.8659 -0.29195,0.10389 -12.52708,-3.57858 -13.4355,-4.04373 -0.27957,-0.14313 -9.12804,-5.85951 -19.66327,-12.70304 -13.72631,-8.91637 -26.17253,-16.67108 -43.91617,-27.36224 -13.61865,-8.205711 -31.25005,-18.84385 -39.1809,-23.640319 l -14.41973,-8.720842 -1.74786,0.163854 c -5.81591,0.545217 -10.21454,6.061683 -11.95592,14.994306 -0.52348,2.685232 -0.53627,2.858243 -1.15378,15.615203 -0.25354,5.237775 -0.91293,15.237148 -1.46533,22.220838 -0.5524,6.98368 -1.27043,16.46361 -1.59561,21.0665 l -0.59125,8.36888 0.57424,9.95608 c 0.70154,12.16334 3.60548,42.83919 5.40747,57.1222 0.72972,5.78391 1.35636,10.53652 1.39255,10.5614 0.075,0.0516 41.46401,1.01991 43.04909,1.00723 1.02052,-0.008 1.07621,-0.0739 3.97673,-4.69772 6.46197,-10.30112 12.58814,-17.80968 15.98897,-19.59692 0.70639,-0.37124 1.27865,-0.80507 1.2717,-0.96406 -0.026,-0.59421 -3.51851,-4.01212 -9.26682,-9.06905 -3.26122,-2.86895 -6.03506,-5.21627 -6.16411,-5.21627 -0.19215,0 -24.04819,28.0085 -26.11262,30.65786 -0.35597,0.45684 -0.69986,1.46022 -0.81596,2.38081 -0.11038,0.87516 -0.29259,1.59118 -0.40491,1.59118 -0.11232,0 -1.33993,-6.07104 -2.72801,-13.49121 l -2.52378,-13.49122 -2.12012,-21.68878 -2.12013,-21.68876 -3.8354,-4.99614 c -3.54684,-4.62026 -3.91601,-5.22091 -4.90696,-7.98392 -0.58938,-1.64329 -1.03105,-3.09614 -0.9815,-3.22856 0.0495,-0.13244 1.97633,1.50381 4.28177,3.63607 2.30541,2.13228 4.2454,3.82365 4.31107,3.75859 0.0656,-0.065 -0.23983,-3.95519 -0.67886,-8.64474 l -0.79827,-8.52648 0.33063,-17.55201 c 0.26388,-14.009427 0.41954,-17.868107 0.77119,-19.118073 l 0.44055,-1.566055 -1.80789,-1.767745 c -0.99434,-0.972263 -2.04469,-2.183008 -2.33415,-2.690541 l -0.52625,-0.922776 1.41818,0 c 1.39619,0 1.67977,0.181541 18.29604,11.713567 9.28281,6.442462 20.41724,14.362813 24.74317,17.600763 32.1045,24.03024 42.51846,31.94148 42.43541,32.23711 -0.0525,0.18702 -1.00706,1.7866 -2.12113,3.55462 l -2.02561,3.21459 -16.30409,15.11125 c -8.96723,8.31119 -16.2998,15.17791 -16.29456,15.25937 0.005,0.0814 4.69166,2.59469 10.41425,5.58494 l 10.40474,5.43681 2.03915,-0.17654 c 1.55234,-0.1344 2.80412,-0.51211 5.24354,-1.58217 6.10991,-2.68014 11.92686,-4.41091 18.62779,-5.54249 4.42625,-0.74747 14.11698,-1.04712 18.50614,-0.57226 10.93754,1.18335 20.72836,4.73904 30.15818,10.95241 1.60218,1.05569 3.1298,1.93358 3.39466,1.95086 1.31403,0.0858 6.8754,5.94375 11.45419,12.06526 4.23711,5.66473 12.70821,18.78461 14.9921,23.21952 0.32367,0.62848 2.88916,7.25187 5.7011,14.71863 4.67002,12.40058 5.51542,14.38978 9.76493,22.97601 2.55876,5.17003 4.65232,9.60205 4.65232,9.84891 0,0.24685 0.61456,1.63822 1.36567,3.09192 1.821,3.52425 5.22266,7.00937 7.74862,7.93872 4.37847,1.6109 8.76818,0.0802 13.94571,-4.86278 l 2.56934,-2.45294 7.46176,-13.64846 c 4.75488,-8.69719 7.41003,-13.84457 7.31908,-14.18903 -0.0785,-0.29733 -5.35786,-10.12855 -11.73196,-21.84716 -12.40977,-22.81501 -13.34519,-24.34768 -23.39562,-38.33292 -4.40933,-6.1356 -4.97883,-7.05769 -4.99069,-8.08031 -0.008,-0.63488 -0.39681,-2.64377 -0.8655,-4.46423 -0.4687,-1.82045 -0.79672,-3.36483 -0.72895,-3.43196 0.21234,-0.21036 0.97988,0.56206 1.18038,1.18786 0.10546,0.32913 0.61717,1.19397 1.13715,1.92187 0.51999,0.72792 5.30932,8.40096 10.64294,17.05121 13.74113,22.2858 29.99777,48.43925 34.53765,55.56361 4.07928,6.40155 4.30305,6.83599 14.19112,27.54805 3.44772,7.22177 7.44522,15.55136 8.88329,18.51016 2.11474,4.35095 3.02477,6.68079 4.759,12.18415 1.66564,5.28566 2.22158,6.72583 2.49066,6.4522 0.19054,-0.19376 3.26142,-4.37799 6.8242,-9.29832 z M 357.97886,169.12739 c 0.15865,-0.82104 3.77955,-3.35424 7.50908,-5.25338 5.86664,-2.98739 10.89777,-4.36983 15.90306,-4.36983 2.62152,0 5.56854,0.41265 6.04039,0.84578 0.18772,0.17235 -12.77656,4.28013 -25.13232,7.96328 -1.68229,0.50147 -3.36574,1.00971 -3.74095,1.12941 -0.56431,0.18002 -0.66444,0.12554 -0.57926,-0.31526 z m 271.43197,121.78035 c -0.16194,-0.42193 -3.70802,-10.37688 -7.88022,-22.12219 l -7.5858,-21.35508 1.49811,-4.60049 c 0.82399,-2.53026 1.44208,-4.656 1.3736,-4.72386 -0.0686,-0.0679 -5.77963,2.66972 -12.69138,6.08353 -9.24099,4.56425 -12.56681,6.33791 -12.56681,6.70185 0,0.48683 3.97218,23.34443 4.25527,24.48658 0.0798,0.32195 0.76085,0.96547 1.51343,1.43005 0.75257,0.46458 4.51446,2.88201 8.35972,5.37204 l 6.99139,4.52735 8.1514,2.35823 c 4.48327,1.29702 8.20836,2.41467 8.27798,2.48365 0.38736,0.38372 0.55815,0.0226 0.30331,-0.64166 z M 239.36414,241.50747 c 3.40129,-6.56161 6.07152,-12.02773 5.93385,-12.14694 -0.13767,-0.11919 -0.98179,-0.37151 -1.87583,-0.56069 -3.71723,-0.78659 -3.52934,-0.65539 -5.06165,-3.5344 l -1.40192,-2.63402 3.63931,0.12002 3.63931,0.12002 0.69535,-1.9865 c 0.38244,-1.09259 0.76143,-2.02633 0.8422,-2.07501 0.0808,-0.0486 1.24375,0.0996 2.58439,0.32956 1.34066,0.22993 2.47587,0.37923 2.52268,0.33177 0.0468,-0.0475 -0.4822,-6.51447 -1.17558,-14.37112 -0.94473,-10.70463 -1.57436,-16.21957 -2.51221,-22.0044 -0.68833,-4.24577 -1.32176,-7.71923 -1.40763,-7.7188 -0.0858,2.8e-4 -2.22561,5.94159 -4.755,13.20262 l -4.5989,13.20188 -1.87196,12.03297 c -1.81534,11.66896 -1.89003,12.37036 -2.46919,23.18575 -0.45196,8.43958 -0.52009,11.44456 -0.28007,12.35222 0.66555,2.51692 1.20422,4.2688 1.28486,4.17882 0.0461,-0.0515 2.86672,-5.46215 6.26799,-12.02375 z m 370.06245,-7.40642 c 6.33132,-1.79935 10.23598,-3.04703 10.3809,-3.31708 0.12779,-0.23808 2.88992,-8.93883 6.13813,-19.335 3.96133,-12.67876 7.60125,-25.1255 11.0555,-37.80426 2.83236,-10.39619 5.13835,-18.91289 5.12443,-18.92601 -0.14045,-0.13242 -11.42172,0.80925 -11.58062,0.96666 -0.58469,0.57925 -5.16116,14.95106 -9.40156,29.52447 l -4.75058,16.32673 -5.17387,11.08857 -5.17389,11.08858 -2.71024,2.72201 -2.71026,2.72201 -4.86238,-4.59779 c -2.67428,-2.5288 -7.36871,-6.96013 -10.43207,-9.84742 l -5.56972,-5.24961 -0.0763,11.28337 c -0.0697,10.31334 -0.0334,11.33034 0.42285,11.8297 0.80043,0.87619 4.98853,2.77844 7.51872,3.41501 3.12017,0.78502 5.86804,1.10249 9.03055,1.04332 2.37238,-0.0444 3.58707,-0.3234 12.77038,-2.93326 z m 2.16183,-31.74242 c 3.84377,-10.47555 8.80169,-24.37077 11.01755,-30.8783 3.66399,-10.76043 4.15711,-12.01083 5.44539,-13.8083 0.7791,-1.08704 1.37486,-2.01298 1.32393,-2.05765 -0.051,-0.0446 -1.46904,0.0264 -3.15133,0.15796 -1.6823,0.13154 -5.54941,0.38326 -8.59359,0.55937 -6.57312,0.38026 -11.87277,1.22475 -19.79527,3.15432 -8.69172,2.11692 -26.95963,7.58429 -26.95963,8.06868 0,0.1106 0.52741,1.75335 1.17205,3.65055 3.81864,11.2388 6.30151,22.25821 6.60712,29.3238 l 0.17053,3.94208 7.85818,8.17837 c 4.32202,4.49811 9.0322,9.41768 10.46712,10.93238 l 2.60896,2.754 2.42012,-2.46542 2.42014,-2.46543 6.98873,-19.04641 z M 289.45234,197.0616 c 6.43511,-7.51626 11.65869,-13.7892 11.608,-13.93988 -0.10961,-0.32572 -31.50415,-31.92177 -31.62829,-31.83128 -0.0792,0.0577 0.37689,4.06297 0.68882,6.04937 0.52639,3.35214 1.02288,7.31622 3.61439,28.85822 1.43207,11.90401 2.66541,22.1631 2.74077,22.79799 0.0753,0.63488 0.14637,1.54031 0.15778,2.01205 0.0265,1.09634 -1.24435,2.47905 12.81853,-13.94647 z m 35.03411,-34.6716 15.48284,-13.99624 2.45076,-3.6769 c 1.34794,-2.02229 2.40673,-3.79751 2.35283,-3.94491 -0.1062,-0.29056 -12.96541,-9.48508 -51.15486,-36.57638 -13.50137,-9.577765 -24.64795,-17.414117 -24.77022,-17.414117 -0.12225,0 -0.75635,5.486677 -1.40911,12.192595 l -1.18684,12.192612 1.11958,15.42538 c 0.8487,11.69341 1.21852,15.52343 1.52857,15.83059 2.10888,2.08914 39.45221,34.06441 39.73254,34.02102 0.20406,-0.0315 7.33833,-6.35573 15.85391,-14.05365 z m 67.60796,-42.40733 14.92042,-4.31447 7.99564,-0.74459 c 4.3976,-0.40952 8.04638,-0.79485 8.10841,-0.85629 0.062,-0.0614 -1.008,-1.85077 -2.37778,-3.9763 l -2.49053,-3.8646 0.57844,-5.01229 c 0.35566,-3.081578 0.47215,-5.077394 0.30243,-5.181306 -0.15181,-0.093 -7.14233,-0.670586 -15.53448,-1.283626 l -15.25841,-1.114615 -20.95787,3.514988 c -11.52685,1.933248 -21.19253,3.606349 -21.47936,3.718009 -0.40197,0.1565 3.03153,2.86457 14.98165,11.8163 8.52672,6.38729 15.68043,11.61326 15.8971,11.61326 0.21668,0 7.10814,-1.94151 15.31434,-4.31447 z"
       id="path3347"
       inkscape:connector-curvature="0" />
  </g>
</svg>
